<svg width="1213" height="268" viewBox="0 0 1213 268" fill="none" xmlns="http://www.w3.org/2000/svg">
<path opacity="0.65" fill-rule="evenodd" clip-rule="evenodd" d="M0.133057 0.416504H1212.13V267.975H0.133057V0.416504ZM918.227 103.39V74.6996L918.404 74.8772C918.475 55.7547 926.109 37.4367 939.639 23.9233C953.169 10.4099 971.496 2.7988 990.619 2.75201H1022.77C1022.34 11.52 1018.87 19.8641 1012.95 26.3486C1007.04 32.8332 999.044 37.0529 990.352 38.2817C985.539 38.2817 980.773 39.2311 976.327 41.0758C971.881 42.9204 967.843 45.624 964.444 49.0316C961.044 52.4393 958.351 56.484 956.517 60.9342C954.683 65.3845 953.745 70.1528 953.757 74.966V100.547H1009.45V103.123C1009.43 111.88 1005.94 120.27 999.746 126.462C993.554 132.654 985.163 136.142 976.407 136.166H953.757V211.311C953.757 215.646 952.901 219.939 951.24 223.943C949.578 227.946 947.143 231.583 944.073 234.645C941.004 237.706 937.361 240.131 933.352 241.782C929.344 243.433 925.049 244.277 920.714 244.265H918.227V147.002V136.166H898.419V133.59C898.434 127.177 900.315 120.907 903.832 115.544C907.349 110.182 912.351 105.958 918.227 103.39ZM573.144 3.72788H570.568V211.31C570.591 220.058 574.083 228.44 580.277 234.617C586.471 240.795 594.862 244.264 603.61 244.264H606.186V174.27C606.186 164.541 610.051 155.21 616.931 148.33C623.81 141.451 633.141 137.586 642.871 137.586C652.6 137.586 661.931 141.451 668.81 148.33C675.69 155.21 679.555 164.541 679.555 174.27V208.645C679.555 218.068 683.298 227.105 689.961 233.769C696.624 240.432 705.662 244.175 715.085 244.175V174.181C715.061 154.989 707.427 136.59 693.856 123.019C680.285 109.448 661.885 101.813 642.693 101.79C629.746 101.847 617.062 105.441 606.008 112.182V37.2146C606.008 28.4511 602.527 20.0466 596.331 13.8499C590.134 7.65321 581.729 4.17196 572.966 4.17196L573.144 3.72788ZM110.544 244.264V76.1198L110.722 75.8533C110.722 66.124 106.857 56.7932 99.977 49.9135C93.0974 43.0339 83.7666 39.1689 74.0373 39.1689C64.308 39.1689 54.9772 43.0339 48.0975 49.9135C41.2179 56.7932 37.3529 66.124 37.3529 75.8533V108.274H54.496C63.919 108.274 72.9562 112.017 79.6193 118.681C86.2824 125.344 90.0257 134.381 90.0257 143.804H37.2641V211.399C37.2405 220.147 33.7489 228.529 27.5548 234.706C21.3606 240.884 12.9695 244.353 4.22146 244.353H1.64562V78.9621C1.33328 61.8841 6.92517 45.2216 17.4767 31.7894C28.0283 18.3572 42.8926 8.97873 59.559 5.2381C69.8808 3.18008 80.5274 3.39757 90.7566 5.87539C100.986 8.3532 110.552 13.0317 118.788 19.585C127.024 26.1383 133.732 34.4086 138.444 43.8197C143.157 53.2309 145.76 63.5564 146.074 74.0768V76.1198V211.31C146.074 215.645 145.218 219.938 143.557 223.942C141.895 227.945 139.46 231.582 136.39 234.644C133.321 237.705 129.678 240.13 125.669 241.781C121.661 243.432 117.366 244.276 113.031 244.264H110.544ZM852.687 233.767C846.024 227.104 842.281 218.066 842.281 208.643L843.435 135.896H810.837C801.107 135.896 791.777 139.761 784.897 146.641C778.017 153.521 774.152 162.852 774.152 172.581C774.152 182.31 778.017 191.641 784.897 198.521C791.777 205.4 801.107 209.265 810.837 209.265C816.135 209.847 821.25 211.542 825.848 214.239C829.362 216.589 832.381 219.607 834.73 223.122C835.214 223.847 835.574 224.491 835.951 225.164L835.952 225.164L835.955 225.171L835.963 225.184C836.136 225.493 836.313 225.809 836.507 226.142C837.707 227.99 838.719 229.954 839.527 232.004C841.211 235.934 842.289 240.097 842.725 244.351H809.416C798.765 244.244 788.269 241.789 778.676 237.16C769.084 232.531 760.631 225.842 753.92 217.571C747.21 209.3 742.407 199.649 739.855 189.308C737.303 178.968 737.064 168.191 739.156 157.747C742.915 141.074 752.31 126.207 765.757 115.657C779.204 105.106 795.879 99.5175 812.969 99.8338H877.81V244.173C868.387 244.173 859.35 240.43 852.687 233.767ZM220.597 244.262V37.2129C220.609 32.8779 219.765 28.5832 218.114 24.5748C216.463 20.5664 214.038 16.9231 210.977 13.8537C207.915 10.7842 204.279 8.3489 200.275 6.68727C196.271 5.02564 191.978 4.1703 187.643 4.17032H185.067V211.308C185.091 220.056 188.583 228.438 194.777 234.615C200.971 240.793 209.362 244.262 218.11 244.262H220.597ZM1210.63 245.064H1208.06C1199.31 245.064 1190.92 241.595 1184.72 235.417C1178.53 229.24 1175.04 220.858 1175.01 212.11V99.9252H1177.59C1186.35 99.9486 1194.74 103.437 1200.93 109.629C1207.12 115.821 1210.61 124.212 1210.63 132.968V245.064ZM512.829 56.4024C494.414 32.4213 468.218 15.6066 438.747 8.85056C409.275 2.09449 378.371 5.81928 351.349 19.3843C324.327 32.9493 302.877 55.5065 290.687 83.1762C278.498 110.846 276.331 141.898 284.56 170.993C292.789 200.087 310.899 225.405 335.776 242.591C360.652 259.777 390.74 267.757 420.864 265.159C450.987 262.561 479.264 249.547 500.831 228.355C522.398 207.164 535.906 179.12 539.032 149.046C544.039 146.228 548.217 142.143 551.148 137.201C554.079 132.259 555.659 126.634 555.731 120.889V118.313H424.448C415.692 118.336 407.301 121.825 401.11 128.017C394.918 134.208 391.429 142.599 391.406 151.355C391.406 152.039 391.677 152.694 392.16 153.177C392.643 153.66 393.299 153.931 393.982 153.931H504.657C501.283 171.78 492.898 188.3 480.481 201.559C468.064 214.817 452.129 224.266 434.539 228.801C416.949 233.336 398.432 232.769 381.152 227.167C363.873 221.564 348.546 211.158 336.963 197.164C325.381 183.171 318.021 166.169 315.747 148.147C313.472 130.125 316.375 111.828 324.116 95.3954C331.858 78.9628 344.119 65.0739 359.464 55.3531C374.809 45.6324 392.605 40.4815 410.77 40.5029C431.206 40.4323 451.117 46.9758 467.528 59.1559C467.528 59.1559 497.906 78.9637 512.829 56.4024ZM1091.52 101.79H1144.73C1144.59 111.12 1140.79 120.021 1134.14 126.569C1127.49 133.118 1118.53 136.788 1109.2 136.787H1094.72C1089.92 136.787 1085.17 137.734 1080.73 139.574C1076.3 141.414 1072.27 144.111 1068.88 147.511C1065.49 150.91 1062.8 154.945 1060.97 159.385C1059.14 163.824 1058.2 168.581 1058.22 173.382V209.623C1058.22 219.046 1054.47 228.083 1047.81 234.746C1041.15 241.409 1032.11 245.152 1022.69 245.152V173.56C1022.71 155.036 1029.89 137.236 1042.71 123.867C1055.53 110.498 1073.02 102.59 1091.52 101.79ZM1174.29 58.2608V55.7408C1174.29 51.301 1176.05 47.0431 1179.18 43.9038C1182.32 40.7644 1186.56 39.0008 1190.99 39.0008H1193.6C1198.02 39.0008 1202.27 40.7644 1205.4 43.9038C1208.53 47.0431 1210.29 51.301 1210.29 55.7408V58.2608C1210.29 62.7005 1208.53 66.9583 1205.4 70.0977C1202.27 73.2371 1198.02 75.0008 1193.6 75.0008H1190.99C1186.56 75.0008 1182.32 73.2371 1179.18 70.0977C1176.05 66.9583 1174.29 62.7005 1174.29 58.2608Z" fill="white"/>
</svg>
