<svg width="262" height="20" viewBox="0 0 262 20" fill="none" xmlns="http://www.w3.org/2000/svg">
<path d="M1.64404 8.72998C0.953687 8.72998 0.394043 9.28962 0.394043 9.97998C0.394043 10.6703 0.953687 11.23 1.64404 11.23V8.72998ZM261.469 10.8639C261.957 10.3757 261.957 9.58425 261.469 9.0961L253.514 1.14115C253.026 0.65299 252.235 0.65299 251.747 1.14115C251.258 1.6293 251.258 2.42076 251.747 2.90891L258.818 9.97998L251.747 17.051C251.258 17.5392 251.258 18.3307 251.747 18.8188C252.235 19.307 253.026 19.307 253.514 18.8188L261.469 10.8639ZM1.64404 11.23H260.585V8.72998H1.64404V11.23Z" fill="white"/>
</svg>
