<svg width="215" height="160" viewBox="0 0 215 160" fill="none" xmlns="http://www.w3.org/2000/svg">
<g clip-path="url(#clip0_447_617)">
<path d="M70.3184 79.1064L70.3444 79.1324L70.3357 79.1064H70.3184Z" fill="#394849"/>
<path d="M57.7612 137.68C57.3401 137.68 56.9363 137.513 56.6386 137.215C56.3409 136.918 56.1736 136.515 56.1736 136.094V136.002C56.1577 135.784 56.1871 135.564 56.2599 135.358C56.3327 135.151 56.4473 134.962 56.5967 134.801C56.746 134.641 56.9269 134.513 57.128 134.426C57.3291 134.338 57.5461 134.293 57.7654 134.293C57.9847 134.293 58.2017 134.338 58.4028 134.426C58.6039 134.513 58.7847 134.641 58.9341 134.801C59.0834 134.962 59.1981 135.151 59.2709 135.358C59.3437 135.564 59.373 135.784 59.3571 136.002V136.094C59.3549 136.516 59.1858 136.919 58.8867 137.216C58.5877 137.513 58.183 137.68 57.7612 137.68Z" fill="#394849"/>
<path d="M85.6059 137.68C86.0277 137.68 86.4324 137.513 86.7315 137.216C87.0305 136.919 87.1996 136.516 87.2019 136.094V136.002C87.2178 135.784 87.1884 135.564 87.1156 135.358C87.0428 135.151 86.9282 134.962 86.7788 134.801C86.6294 134.641 86.4486 134.513 86.2475 134.426C86.0464 134.338 85.8294 134.293 85.6101 134.293C85.3908 134.293 85.1738 134.338 84.9727 134.426C84.7716 134.513 84.5908 134.641 84.4414 134.801C84.292 134.962 84.1774 135.151 84.1046 135.358C84.0318 135.564 84.0025 135.784 84.0184 136.002V136.094C84.0184 136.515 84.1856 136.918 84.4833 137.215C84.7811 137.513 85.1849 137.68 85.6059 137.68Z" fill="#394849"/>
<path fill-rule="evenodd" clip-rule="evenodd" d="M111.847 152.66C111.002 152.66 110.192 152.325 109.595 151.729C108.998 151.133 108.663 150.324 108.663 149.481V134.316C109.507 134.316 110.317 134.651 110.914 135.247C111.511 135.843 111.847 136.652 111.847 137.495V152.66ZM6.96793 149.305V149.272C6.09911 149.272 5.26587 148.927 4.65152 148.314C4.03717 147.7 3.69203 146.868 3.69203 146C3.69203 145.133 4.03717 144.301 4.65152 143.687C5.26587 143.074 6.09911 142.729 6.96793 142.729H9.51461C9.5889 142.735 12.9463 142.976 12.7221 139.542H9.74015L9.73995 139.544L9.73984 139.542H6.96793C6.09951 139.51 5.23369 139.654 4.42217 139.965C3.61064 140.275 2.87005 140.745 2.24461 141.348C1.61918 141.95 1.12173 142.672 0.781964 143.471C0.4422 144.27 0.26709 145.128 0.26709 145.996C0.26709 146.864 0.4422 147.723 0.781964 148.522C1.12173 149.32 1.61918 150.042 2.24461 150.645C2.87005 151.247 3.61064 151.718 4.42217 152.028C5.23369 152.338 6.09951 152.482 6.96793 152.451V152.451H26.3793V152.451H30.0584L30.0751 152.484C30.9195 152.484 31.7292 152.149 32.3262 151.553C32.9232 150.957 33.2586 150.148 33.2586 149.305H26.3793V149.339C25.5107 149.339 24.6778 148.994 24.0636 148.381C23.4493 147.767 23.1041 146.935 23.1041 146.067C23.1041 145.2 23.4493 144.368 24.0636 143.754C24.678 143.141 25.5112 142.796 26.38 142.796H29.2827C29.2648 143.274 29.2888 146.14 32.4698 145.925L32.4698 144.608L32.4698 144.147L32.4698 139.575H26.38C24.6668 139.58 23.0251 140.262 21.8145 141.472C20.6038 142.683 19.9228 144.323 19.9206 146.034C19.9163 147.186 20.2271 148.317 20.8194 149.305H6.96793ZM62.9188 139.542H57.1734C55.6446 139.514 54.1531 140.014 52.9503 140.957C51.7476 141.899 50.9073 143.228 50.5712 144.717C50.3851 145.647 50.4061 146.606 50.6326 147.527C50.7838 148.142 51.0241 148.729 51.3446 149.272H41.5072V143.35C41.1277 143.339 40.7497 143.402 40.3948 143.537C40.04 143.672 39.7152 143.875 39.439 144.135C39.1629 144.395 38.9408 144.707 38.7854 145.053C38.6301 145.399 38.5445 145.772 38.5337 146.151V152.023C38.5756 152.837 38.3825 155.219 37.0301 156.401C36.4966 156.855 35.831 157.126 35.1318 157.173V157.14C34.7689 157.142 34.4104 157.219 34.078 157.364C33.7456 157.509 33.4463 157.721 33.1981 157.985C32.9499 158.249 32.758 158.561 32.6341 158.902C32.5103 159.242 32.457 159.605 32.4774 159.966H34.863C36.4052 159.967 37.8961 159.413 39.0628 158.406C41.1567 156.594 41.4673 153.647 41.5058 152.451H56.8086L56.8206 152.451L56.827 152.451H62.7921V152.443H62.9188C62.9456 152.443 62.9712 152.432 62.9901 152.413C63.009 152.394 63.0196 152.369 63.0196 152.342V139.643C63.0177 139.616 63.0064 139.592 62.9879 139.574C62.9694 139.555 62.9449 139.544 62.9188 139.542ZM59.8277 149.272V142.822C59.8277 142.797 59.818 142.774 59.8007 142.756C59.7833 142.739 59.7598 142.729 59.7353 142.729H57.165C56.3448 142.703 55.5421 142.97 54.9015 143.482C54.2609 143.994 53.8244 144.718 53.6707 145.522C53.6028 145.981 53.6331 146.448 53.7595 146.894C53.886 147.339 54.1058 147.753 54.4044 148.107C54.7029 148.462 55.0735 148.749 55.4915 148.95C55.9072 149.149 56.3606 149.259 56.8217 149.272H59.8277ZM101.549 149.305V137.587C101.551 136.744 101.888 135.935 102.486 135.339C103.085 134.743 103.895 134.408 104.74 134.408V152.476H66.7316V134.341C67.5759 134.341 68.3857 134.676 68.9827 135.272C69.5797 135.869 69.9151 136.677 69.9151 137.52V149.263H79.6504C78.9708 148.101 78.6768 146.753 78.8104 145.413C79.0161 143.783 79.8139 142.284 81.0525 141.202C82.2911 140.12 83.8844 139.529 85.5302 139.542H91.3176V145.925C87.8401 146.16 88.1341 142.729 88.1341 142.729H85.3874C84.5901 142.711 83.8119 142.974 83.1885 143.47C82.5652 143.967 82.1364 144.667 81.9771 145.447C81.892 145.921 81.9125 146.409 82.0373 146.874C82.1622 147.34 82.3882 147.772 82.6994 148.14C83.0105 148.509 83.3992 148.804 83.8376 149.006C84.2761 149.207 84.7536 149.309 85.2362 149.305H101.549ZM161.616 151.729C162.213 152.325 163.022 152.66 163.867 152.66V137.495C163.867 136.652 163.531 135.843 162.934 135.247C162.337 134.651 161.527 134.316 160.683 134.316V149.481C160.683 150.324 161.019 151.133 161.616 151.729ZM10.7397 159.882C10.7397 159.463 10.8226 159.049 10.9836 158.662C11.1446 158.275 11.3806 157.924 11.678 157.628C11.9754 157.333 12.3284 157.099 12.7166 156.94C13.1047 156.782 13.5205 156.701 13.94 156.703H21.4997C21.4997 157.122 21.4171 157.536 21.2566 157.922C21.0961 158.308 20.8609 158.659 20.5644 158.954C20.2678 159.25 19.9159 159.484 19.5287 159.643C19.1415 159.802 18.7266 159.883 18.3078 159.882H10.7397ZM156.735 152.451H129.856L129.914 152.476C124.9 152.476 123.06 149.297 123.06 149.297C122.384 148.133 122.091 146.786 122.22 145.447C122.426 143.816 123.224 142.318 124.462 141.236C125.701 140.153 127.294 139.563 128.94 139.575H134.719V145.959C131.25 146.194 131.536 142.763 131.536 142.763H128.772C127.973 142.736 127.19 142.996 126.565 143.494C125.94 143.992 125.513 144.696 125.362 145.481C125.282 145.951 125.307 146.433 125.433 146.893C125.559 147.354 125.785 147.781 126.094 148.145C126.402 148.509 126.787 148.801 127.22 149.002C127.654 149.202 128.126 149.306 128.604 149.305H144.026V137.495C144.026 136.652 144.362 135.843 144.959 135.247C145.556 134.651 146.366 134.316 147.21 134.316V149.305H153.551V137.588C153.551 136.744 153.887 135.936 154.484 135.34C155.081 134.743 155.89 134.408 156.735 134.408V152.451ZM178.518 152.443H167.739C167.739 152.443 167.327 149.54 171.712 149.263H177.079C177.557 149.264 178.029 149.16 178.463 148.96C178.897 148.759 179.281 148.467 179.59 148.103C179.899 147.739 180.124 147.312 180.25 146.851C180.377 146.391 180.401 145.909 180.322 145.439C180.17 144.654 179.743 143.95 179.118 143.452C178.493 142.954 177.711 142.694 176.911 142.721H174.375V142.729H171.712C167.327 142.452 167.739 139.542 167.739 139.542H174.375V139.542H176.794C178.447 139.519 180.05 140.105 181.298 141.188C182.545 142.271 183.349 143.776 183.556 145.413C183.685 146.753 183.391 148.099 182.716 149.263H189.645V143.366C189.645 142.523 189.98 141.715 190.577 141.119C191.174 140.522 191.984 140.187 192.828 140.187V149.263H199.549C198.891 148.109 198.605 146.779 198.733 145.455C198.939 143.824 199.737 142.326 200.976 141.244C202.214 140.161 203.807 139.571 205.453 139.584H211.232V145.95C207.763 146.185 208.049 142.754 208.049 142.754H205.31C204.511 142.728 203.729 142.987 203.103 143.485C202.478 143.983 202.052 144.688 201.9 145.472C201.821 145.942 201.845 146.425 201.971 146.885C202.098 147.345 202.323 147.772 202.632 148.136C202.941 148.5 203.325 148.793 203.759 148.993C204.192 149.194 204.665 149.297 205.142 149.297H210.493C214.878 149.574 214.466 152.476 214.466 152.476H178.515L178.518 152.443ZM187.658 157.83C187.358 158.129 186.952 158.297 186.529 158.297C186.107 158.295 185.703 158.126 185.406 157.827C185.109 157.529 184.942 157.125 184.942 156.704V156.611C184.926 156.393 184.955 156.173 185.028 155.967C185.101 155.76 185.215 155.571 185.365 155.41C185.514 155.25 185.695 155.122 185.896 155.035C186.097 154.947 186.314 154.902 186.533 154.902C186.753 154.902 186.97 154.947 187.171 155.035C187.372 155.122 187.553 155.25 187.702 155.41C187.851 155.571 187.966 155.76 188.039 155.967C188.112 156.173 188.141 156.393 188.125 156.611V156.704C188.125 157.126 187.957 157.532 187.658 157.83Z" fill="#394849"/>
<path d="M211.132 103.239V103.474C211.132 103.888 211.296 104.284 211.589 104.577C211.882 104.87 212.28 105.034 212.694 105.034H212.938C213.352 105.034 213.75 104.87 214.043 104.577C214.336 104.284 214.5 103.888 214.5 103.474V103.239C214.5 102.825 214.336 102.428 214.043 102.136C213.75 101.843 213.352 101.679 212.938 101.679H212.694C212.28 101.679 211.882 101.843 211.589 102.136C211.296 102.428 211.132 102.825 211.132 103.239Z" fill="#394849"/>
<path fill-rule="evenodd" clip-rule="evenodd" d="M28.0352 108.903C29.3054 109.899 30.1923 111.303 30.546 112.877L30.5544 112.826C30.7548 113.819 30.7317 114.845 30.4867 115.828C30.2418 116.811 29.7811 117.727 29.138 118.51C28.4949 119.294 27.6855 119.925 26.7683 120.358C25.8511 120.791 24.8491 121.014 23.8346 121.013H21.6843C21.6843 121.013 22.1715 118.044 24.305 117.658H24.3554L24.6242 117.608C25.4518 117.413 26.179 116.921 26.6677 116.227C27.1564 115.532 27.3726 114.682 27.2752 113.839C27.1777 112.995 26.7735 112.217 26.1393 111.651C25.505 111.086 24.6849 110.773 23.8346 110.771H20.7519V121.047H20.5083C19.6811 121.047 18.8876 120.719 18.3018 120.136C17.7161 119.552 17.3859 118.761 17.3836 117.935V101.494C17.3781 101.081 17.4548 100.671 17.6093 100.287C17.7639 99.9039 17.9931 99.5549 18.2839 99.2607C18.5746 98.9665 18.9209 98.7329 19.3028 98.5735C19.6847 98.4141 20.0944 98.332 20.5083 98.332H20.7435V107.408H23.5742C25.1892 107.378 26.7649 107.906 28.0352 108.903ZM64.7415 98.332H64.5063V117.935C64.5063 118.76 64.8347 119.552 65.4191 120.135C66.0035 120.719 66.7962 121.047 67.6227 121.047H67.8662V101.494C67.8673 101.084 67.7873 100.678 67.6306 100.299C67.474 99.9198 67.2439 99.5754 66.9535 99.2854C66.6631 98.9955 66.3182 98.7657 65.9386 98.6092C65.559 98.4528 65.1522 98.3729 64.7415 98.374V98.332ZM14.276 117.935V105.168V104.975C14.2477 103.978 14.0008 102.998 13.5526 102.106C13.1044 101.214 12.4658 100.431 11.6818 99.8124C10.8978 99.1934 9.98752 98.7536 9.01495 98.5239C8.04238 98.2942 7.03121 98.2803 6.05265 98.4829C4.48504 98.8428 3.08919 99.7304 2.09955 100.997C1.10991 102.263 0.58678 103.831 0.618022 105.437V121.055H0.844814C1.25476 121.055 1.66068 120.974 2.03931 120.817C2.41795 120.66 2.76186 120.43 3.05135 120.14C3.34083 119.851 3.5702 119.507 3.72632 119.128C3.88243 118.75 3.96222 118.344 3.96112 117.935V111.56H9.00095C9.00095 110.67 8.64697 109.816 8.01686 109.187C7.38676 108.558 6.53216 108.205 5.64106 108.205H3.96952V105.319C3.95281 104.476 4.23293 103.654 4.761 102.997C5.28908 102.339 6.03159 101.888 6.85902 101.721C7.35711 101.636 7.86762 101.662 8.35487 101.795C8.84212 101.928 9.29434 102.166 9.67993 102.492C10.0655 102.818 10.3752 103.224 10.5872 103.682C10.7993 104.14 10.9087 104.638 10.9077 105.143V120.786C10.9065 120.818 10.9118 120.849 10.9232 120.878C10.9346 120.907 10.9519 120.933 10.974 120.955C10.996 120.977 11.0224 120.994 11.0515 121.006C11.0806 121.017 11.1117 121.023 11.1429 121.021C11.5528 121.022 11.959 120.943 12.338 120.787C12.7171 120.631 13.0616 120.402 13.3519 120.113C13.6421 119.824 13.8724 119.48 14.0296 119.102C14.1867 118.724 14.2676 118.319 14.2676 117.909L14.276 117.935ZM74.3172 101.494V121.046H74.0736C73.2463 121.046 72.4528 120.719 71.867 120.135C71.2813 119.552 70.9511 118.761 70.9489 117.934V98.3738H71.1925C72.0212 98.3738 72.816 98.7026 73.402 99.2877C73.988 99.8729 74.3172 100.667 74.3172 101.494ZM62.3476 114.63V108.205H62.1796C61.327 108.207 60.51 108.546 59.9072 109.148C59.3044 109.75 58.9647 110.566 58.9625 111.417V114.915C58.8771 115.795 58.458 116.609 57.791 117.191C57.124 117.772 56.2597 118.077 55.375 118.042C54.4902 118.008 53.6522 117.637 53.0323 117.006C52.4125 116.375 52.0579 115.531 52.0411 114.647V111.56H56.577C56.6464 110.82 56.4499 110.08 56.0226 109.471C55.5256 108.796 54.7841 108.342 53.9562 108.205H48.6644V114.37C48.6361 115.983 49.1652 117.557 50.1626 118.827C51.1601 120.096 52.565 120.984 54.141 121.34C55.1359 121.54 56.1628 121.517 57.1477 121.272C58.1325 121.028 59.0506 120.568 59.8358 119.926C60.621 119.284 61.2536 118.476 61.688 117.56C62.1223 116.644 62.3476 115.643 62.3476 114.63ZM86.5216 119.897C86.6762 120.27 86.7779 120.663 86.8239 121.063L83.6572 121.047C82.6521 121.02 81.6652 120.772 80.7669 120.321C79.8686 119.87 79.0809 119.227 78.4601 118.437C77.8392 117.647 77.4005 116.731 77.175 115.752C76.9496 114.774 76.943 113.757 77.1559 112.776C77.5275 111.223 78.42 109.844 79.6852 108.867C80.9504 107.891 82.5121 107.376 84.1108 107.408H90.3686V120.837C90.3687 120.872 90.3617 120.906 90.348 120.938C90.3344 120.971 90.3145 121 90.2894 121.024C90.2644 121.048 90.2346 121.067 90.2021 121.08C90.1695 121.092 90.1347 121.098 90.0998 121.097C89.2546 121.031 88.4655 120.649 87.8907 120.027C87.3158 119.405 86.9978 118.588 87.0004 117.742V110.83H84.0436C83.225 110.815 82.4262 111.083 81.7831 111.589C81.14 112.095 80.6922 112.808 80.5158 113.607C80.4143 114.106 80.4246 114.622 80.546 115.118C80.6673 115.613 80.8966 116.075 81.2175 116.472C81.5384 116.868 81.9431 117.189 82.4026 117.412C82.8621 117.634 83.3651 117.753 83.8756 117.759C84.3375 117.829 84.782 117.986 85.186 118.22C85.5348 118.436 85.8351 118.721 86.068 119.059C86.1137 119.127 86.1478 119.188 86.1835 119.252C86.2002 119.281 86.2172 119.312 86.236 119.344C86.3495 119.518 86.4451 119.704 86.5216 119.897ZM39.1386 117.683H39.0882L38.8194 117.633C37.9918 117.438 37.2646 116.947 36.7759 116.252C36.2872 115.557 36.071 114.707 36.1684 113.864C36.2659 113.02 36.6701 112.242 37.3043 111.676C37.9386 111.111 38.7587 110.798 39.609 110.796H42.6665V121.072H42.9101C43.32 121.073 43.7261 120.993 44.1052 120.837C44.4843 120.681 44.8288 120.452 45.119 120.163C45.4093 119.874 45.6396 119.531 45.7967 119.152C45.9539 118.774 46.0348 118.369 46.0348 117.96V101.494C46.0359 101.084 45.9558 100.678 45.7992 100.299C45.6425 99.9197 45.4124 99.5752 45.122 99.2853C44.8316 98.9953 44.4867 98.7655 44.1071 98.6091C43.7275 98.4527 43.3207 98.3727 42.9101 98.3738H42.6749V107.45H39.8526C38.2365 107.42 36.6596 107.947 35.388 108.944C34.1164 109.94 33.2278 111.344 32.8724 112.919C32.672 113.912 32.6951 114.937 32.9401 115.92C33.185 116.903 33.6457 117.819 34.2888 118.603C34.9319 119.386 35.7413 120.017 36.6585 120.45C37.5757 120.883 38.5777 121.106 39.5922 121.105H41.7425C41.7425 121.105 41.2637 118.111 39.1218 117.75L39.1386 117.683Z" fill="#394849"/>
<path fill-rule="evenodd" clip-rule="evenodd" d="M186.848 107.743V105.034L186.865 105.051C186.872 103.245 187.594 101.515 188.873 100.239C190.153 98.9629 191.886 98.2442 193.694 98.2397H196.735C196.694 99.0677 196.366 99.8557 195.806 100.468C195.247 101.08 194.491 101.479 193.669 101.595C193.214 101.595 192.763 101.685 192.343 101.859C191.922 102.033 191.54 102.288 191.219 102.61C190.897 102.932 190.643 103.314 190.469 103.734C190.296 104.154 190.207 104.605 190.208 105.059V107.475H195.475V107.718C195.473 108.545 195.143 109.337 194.557 109.922C193.972 110.507 193.178 110.836 192.35 110.838H190.208V117.935C190.208 118.344 190.127 118.749 189.97 119.127C189.813 119.506 189.583 119.849 189.293 120.138C189.002 120.427 188.658 120.656 188.279 120.812C187.9 120.968 187.494 121.048 187.084 121.047H186.848V111.862V110.838H184.975V110.595C184.977 109.99 185.154 109.397 185.487 108.891C185.82 108.385 186.293 107.986 186.848 107.743ZM154.215 98.3319H153.972V117.935C153.974 118.761 154.304 119.552 154.89 120.135C155.476 120.719 156.269 121.046 157.096 121.046H157.34V114.437C157.34 113.518 157.705 112.637 158.356 111.987C159.007 111.338 159.889 110.973 160.809 110.973C161.729 110.973 162.612 111.338 163.262 111.987C163.913 112.637 164.278 113.518 164.278 114.437V117.683C164.278 118.573 164.632 119.426 165.262 120.055C165.892 120.685 166.747 121.038 167.638 121.038V114.428C167.636 112.616 166.914 110.878 165.631 109.597C164.347 108.315 162.607 107.594 160.792 107.592C159.568 107.598 158.368 107.937 157.323 108.574V101.494C157.323 100.667 156.994 99.8729 156.408 99.2878C155.822 98.7026 155.027 98.3738 154.198 98.3738L154.215 98.3319ZM110.469 121.046V105.168L110.486 105.143C110.486 104.224 110.12 103.343 109.47 102.693C108.819 102.044 107.937 101.679 107.017 101.679C106.097 101.679 105.214 102.044 104.564 102.693C103.913 103.343 103.548 104.224 103.548 105.143V108.205H105.169C106.06 108.205 106.915 108.558 107.545 109.187C108.175 109.816 108.529 110.67 108.529 111.56H103.539V117.943C103.537 118.769 103.207 119.561 102.621 120.144C102.035 120.727 101.242 121.055 100.415 121.055H100.171V105.437C100.142 103.824 100.67 102.25 101.668 100.982C102.666 99.7134 104.072 98.8278 105.648 98.4745C106.624 98.2802 107.631 98.3007 108.598 98.5347C109.565 98.7687 110.47 99.2105 111.249 99.8293C112.028 100.448 112.662 101.229 113.108 102.118C113.553 103.007 113.799 103.982 113.829 104.975V105.168V117.935C113.829 118.344 113.748 118.749 113.591 119.127C113.434 119.505 113.204 119.849 112.913 120.138C112.623 120.427 112.279 120.656 111.899 120.812C111.52 120.968 111.114 121.048 110.704 121.046H110.469ZM180.651 120.055C180.02 119.426 179.666 118.573 179.666 117.683L179.776 110.813H176.693C175.773 110.813 174.89 111.178 174.24 111.828C173.589 112.477 173.224 113.358 173.224 114.277C173.224 115.196 173.589 116.077 174.24 116.727C174.89 117.376 175.773 117.741 176.693 117.741C177.194 117.796 177.678 117.956 178.112 118.211C178.445 118.433 178.73 118.718 178.952 119.05C178.998 119.118 179.032 119.179 179.068 119.243L179.08 119.264L179.1 119.299L179.12 119.335C179.234 119.51 179.33 119.695 179.406 119.889C179.565 120.26 179.667 120.653 179.708 121.055H176.559C175.551 121.045 174.559 120.813 173.652 120.376C172.745 119.939 171.945 119.307 171.311 118.526C170.676 117.745 170.222 116.833 169.98 115.857C169.739 114.88 169.717 113.863 169.914 112.876C170.27 111.302 171.158 109.898 172.43 108.902C173.702 107.905 175.278 107.378 176.895 107.407H183.026V121.038C182.135 121.038 181.281 120.684 180.651 120.055ZM120.876 121.046V101.494C120.878 101.085 120.798 100.679 120.642 100.301C120.485 99.922 120.256 99.578 119.967 99.2881C119.677 98.9983 119.333 98.7683 118.955 98.6114C118.576 98.4545 118.17 98.3737 117.76 98.3737H117.517V117.934C117.519 118.76 117.849 119.552 118.435 120.135C119.02 120.719 119.814 121.046 120.641 121.046H120.876ZM214.5 121.122H214.256C213.429 121.122 212.636 120.794 212.05 120.211C211.464 119.628 211.134 118.836 211.132 118.01V107.416H211.375C212.203 107.418 212.997 107.748 213.582 108.332C214.168 108.917 214.498 109.71 214.5 110.536V121.122ZM148.512 103.306C146.77 101.042 144.293 99.4536 141.506 98.8157C138.719 98.1777 135.796 98.5294 133.241 99.8104C130.686 101.091 128.657 103.222 127.505 105.834C126.352 108.447 126.147 111.38 126.925 114.127C127.703 116.875 129.416 119.266 131.768 120.888C134.121 122.511 136.966 123.265 139.815 123.02C142.663 122.774 145.338 121.545 147.377 119.544C149.416 117.543 150.694 114.895 150.989 112.055C151.463 111.789 151.858 111.403 152.135 110.936C152.412 110.47 152.562 109.938 152.569 109.396V109.153H140.154C139.326 109.155 138.532 109.484 137.947 110.069C137.361 110.654 137.031 111.446 137.029 112.273C137.029 112.337 137.055 112.399 137.1 112.445C137.146 112.49 137.208 112.516 137.273 112.516H147.739C147.42 114.202 146.627 115.762 145.453 117.014C144.278 118.266 142.771 119.158 141.108 119.586C139.445 120.014 137.694 119.961 136.059 119.432C134.425 118.903 132.976 117.92 131.881 116.599C130.785 115.277 130.089 113.672 129.874 111.97C129.659 110.268 129.934 108.54 130.666 106.988C131.398 105.437 132.557 104.125 134.008 103.207C135.46 102.289 137.142 101.803 138.86 101.805C140.793 101.798 142.676 102.416 144.228 103.566C144.228 103.566 147.1 105.437 148.512 103.306ZM203.236 107.592H208.268C208.255 108.473 207.895 109.314 207.266 109.932C206.637 110.551 205.79 110.897 204.908 110.897H203.539C203.085 110.897 202.635 110.987 202.216 111.16C201.796 111.334 201.415 111.589 201.095 111.91C200.774 112.231 200.52 112.612 200.347 113.031C200.174 113.45 200.085 113.899 200.087 114.353V117.775C200.087 118.665 199.733 119.518 199.102 120.148C198.472 120.777 197.618 121.13 196.727 121.13V114.37C196.729 112.62 197.408 110.94 198.62 109.677C199.833 108.415 201.486 107.668 203.236 107.592Z" fill="#394849"/>
<path fill-rule="evenodd" clip-rule="evenodd" d="M53.8339 76.8654L54.6531 77.8483L57.173 80.9434C58.1346 82.1071 59.3164 83.0701 60.6508 83.7775C61.9852 84.4849 63.4462 84.9228 64.9501 85.0662C66.4541 85.2095 67.9716 85.0555 69.4159 84.6129C70.8603 84.1703 72.2031 83.4478 73.3677 82.4868L70.3018 78.7626L64.2036 71.3728L56.8791 62.5151L56.1651 61.6763L54.8295 60.0574C53.8665 58.8929 52.6831 57.9293 51.3469 57.2218C50.0108 56.5143 48.548 56.0768 47.0424 55.9343C45.5368 55.7917 44.0178 55.9469 42.5722 56.391C41.1267 56.8351 39.783 57.5594 38.618 58.5224L45.4156 66.7495C42.339 67.3359 39.1573 67.4027 36.0041 66.9182C28.8484 65.8188 22.4074 61.9672 18.0585 56.1871C13.7096 50.407 11.7979 43.1572 12.7322 35.9879C13.6665 28.8185 17.3727 22.2988 23.0582 17.8227C28.7437 13.3467 35.9573 11.2696 43.1565 12.0356C50.3556 12.8016 56.969 16.3499 61.5823 21.9219C66.1957 27.4938 68.4429 34.647 67.8434 41.8519C67.244 49.0569 63.8454 55.7417 58.3745 60.4769L65.9342 69.6533C69.0774 66.9091 71.7321 63.7097 73.8298 60.192C74.7197 61.6916 75.7141 63.138 76.8096 64.5198C83.1698 72.5421 92.4316 77.7481 102.599 79.0158C108.92 79.804 115.276 79.0309 121.137 76.84L121.969 77.8482L124.489 80.9434C125.45 82.1071 126.632 83.0701 127.967 83.7775C129.301 84.4849 130.762 84.9228 132.266 85.0661C133.77 85.2094 135.287 85.0554 136.732 84.6128C138.176 84.1703 139.519 83.4478 140.684 82.4868L137.626 78.7625L131.536 71.4147L124.262 62.5151L123.548 61.6763L122.213 60.0574C121.25 58.8941 120.067 57.9316 118.731 57.2248C117.396 56.5181 115.934 56.0809 114.429 55.9384C112.925 55.7959 111.407 55.9507 109.962 56.3941C108.517 56.8374 107.174 57.5607 106.009 58.5224L112.807 66.7498C112.33 66.8421 111.849 66.9219 111.366 66.9892C106.919 67.6078 102.389 67.1387 98.1638 65.6221C93.939 64.1055 90.1463 61.5869 87.1119 58.2828C84.0774 54.9787 81.8921 50.988 80.7437 46.654C79.5954 42.3199 79.5184 37.7722 80.5194 33.4019C81.5205 29.0315 83.5695 24.9694 86.4904 21.5648C89.4113 18.1602 93.1166 15.515 97.2877 13.8567C101.459 12.1985 105.971 11.5767 110.436 12.0449C115.808 12.6078 120.899 14.726 125.082 18.1391C129.265 21.5523 132.359 26.1117 133.982 31.2569C135.605 36.402 135.687 41.9087 134.219 47.0999C132.75 52.2911 129.794 56.9406 125.715 60.4769L133.216 69.6198C136.325 66.8935 138.951 63.7187 141.026 60.2302C141.891 61.6765 142.853 63.0732 143.909 64.4102C150.289 72.4901 159.593 77.7433 169.815 79.0379C176.19 79.8452 182.604 79.0725 188.517 76.8646L189.343 77.8651L191.863 80.9603C192.825 82.1239 194.006 83.087 195.341 83.7944C196.675 84.5018 198.136 84.9397 199.64 85.083C201.144 85.2263 202.662 85.0723 204.106 84.6297C205.55 84.1871 206.893 83.4647 208.058 82.5036L204.975 78.7375L198.877 71.3896L191.552 62.532L190.83 61.6932L189.494 60.0827C187.556 57.7553 184.775 56.2872 181.757 55.9981C178.74 55.709 175.73 56.6224 173.384 58.5393L180.158 66.7378C177.062 67.335 173.859 67.4059 170.685 66.9182C163.53 65.8188 157.089 61.9672 152.74 56.1871C148.391 50.407 146.479 43.1572 147.413 35.9879C148.348 28.8185 152.054 22.2988 157.739 17.8227C163.425 13.3467 170.638 11.2696 177.838 12.0356C185.037 12.8016 191.65 16.3499 196.264 21.9219C200.877 27.4938 203.124 34.647 202.525 41.8519C201.925 49.0569 198.527 55.7417 193.056 60.4769L200.615 69.6533C208.373 62.8806 213.155 53.3355 213.931 43.0751C214.708 32.8146 211.416 22.6604 204.766 14.8005C198.116 6.94066 188.64 2.00453 178.379 1.05586C168.119 0.107202 157.896 3.22197 149.914 9.72891C146.285 12.6871 143.252 16.2387 140.916 20.1938C139.835 18.3987 138.604 16.6826 137.229 15.0649C130.6 7.26265 121.167 2.37338 110.962 1.45072C100.758 0.52806 90.5984 3.64587 82.6738 10.1323C79.1704 12.9999 76.2277 16.4244 73.94 20.232C72.8187 18.328 71.5312 16.51 70.0848 14.8005C63.4347 6.94066 53.9584 2.00453 43.6982 1.05586C33.4379 0.107202 23.2152 3.22197 15.2329 9.72891C7.25073 16.2359 2.14814 25.614 1.02481 35.8424C-0.0985327 46.0707 2.84732 56.3303 9.22752 64.4102C15.6077 72.4901 24.9114 77.7433 35.1337 79.0379C41.5079 79.8451 47.9211 79.0727 53.8339 76.8654Z" fill="#394849"/>
</g>
<defs>
<clipPath id="clip0_447_617">
<rect width="214" height="160" fill="white" transform="translate(0.5)"/>
</clipPath>
</defs>
</svg>
