<svg width="215" height="160" viewBox="0 0 215 160" fill="none" xmlns="http://www.w3.org/2000/svg">
<g clip-path="url(#clip0_436_159966)">
<path d="M70.1711 79.1064L70.1972 79.1324L70.1885 79.1064H70.1711Z" fill="#999999"/>
<path d="M57.6135 137.68C57.1924 137.68 56.7886 137.513 56.4909 137.215C56.1932 136.918 56.0259 136.515 56.0259 136.094V136.002C56.01 135.784 56.0394 135.564 56.1122 135.358C56.185 135.151 56.2996 134.962 56.449 134.801C56.5983 134.641 56.7792 134.513 56.9803 134.426C57.1814 134.338 57.3983 134.293 57.6177 134.293C57.837 134.293 58.054 134.338 58.2551 134.426C58.4561 134.513 58.637 134.641 58.7864 134.801C58.9357 134.962 59.0504 135.151 59.1232 135.358C59.196 135.564 59.2253 135.784 59.2094 136.002V136.094C59.2072 136.516 59.0381 136.919 58.739 137.216C58.44 137.513 58.0353 137.68 57.6135 137.68Z" fill="#999999"/>
<path d="M85.4587 137.68C85.8805 137.68 86.2852 137.513 86.5842 137.216C86.8833 136.919 87.0524 136.516 87.0546 136.094V136.002C87.0705 135.784 87.0412 135.564 86.9684 135.358C86.8956 135.151 86.781 134.962 86.6316 134.801C86.4822 134.641 86.3014 134.513 86.1003 134.426C85.8992 134.338 85.6822 134.293 85.4629 134.293C85.2436 134.293 85.0266 134.338 84.8255 134.426C84.6244 134.513 84.4436 134.641 84.2942 134.801C84.1448 134.962 84.0302 135.151 83.9574 135.358C83.8846 135.564 83.8552 135.784 83.8711 136.002V136.094C83.8711 136.515 84.0384 136.918 84.3361 137.215C84.6338 137.513 85.0376 137.68 85.4587 137.68Z" fill="#999999"/>
<path fill-rule="evenodd" clip-rule="evenodd" d="M111.699 152.66C110.855 152.66 110.045 152.325 109.448 151.729C108.851 151.133 108.516 150.324 108.516 149.481V134.316C109.36 134.316 110.17 134.651 110.767 135.247C111.364 135.843 111.699 136.652 111.699 137.495V152.66ZM6.82047 149.305V149.272C5.95165 149.272 5.11841 148.927 4.50406 148.314C3.88971 147.7 3.54457 146.868 3.54457 146C3.54457 145.133 3.88971 144.301 4.50406 143.687C5.11841 143.074 5.95165 142.729 6.82047 142.729H9.36715C9.44144 142.735 12.7989 142.976 12.5746 139.542H9.59269L9.59249 139.544L9.59238 139.542H6.82047C5.95205 139.51 5.08623 139.654 4.2747 139.965C3.46318 140.275 2.72259 140.745 2.09715 141.348C1.47172 141.95 0.974267 142.672 0.634503 143.471C0.294739 144.27 0.119629 145.128 0.119629 145.996C0.119629 146.864 0.294739 147.723 0.634503 148.522C0.974267 149.32 1.47172 150.042 2.09715 150.645C2.72259 151.247 3.46318 151.718 4.2747 152.028C5.08623 152.338 5.95205 152.482 6.82047 152.451V152.451H26.2318V152.451H29.9109L29.9277 152.484C30.772 152.484 31.5817 152.149 32.1788 151.553C32.7758 150.957 33.1112 150.148 33.1112 149.305H26.2318V149.339C25.3633 149.339 24.5303 148.994 23.9162 148.381C23.3018 147.767 22.9567 146.935 22.9567 146.067C22.9567 145.2 23.3018 144.368 23.9162 143.754C24.5305 143.141 25.3637 142.796 26.2326 142.796H29.1353C29.1173 143.274 29.1414 146.14 32.3224 145.925L32.3224 144.608L32.3224 144.147L32.3224 139.575H26.2326C24.5193 139.58 22.8777 140.262 21.667 141.472C20.4564 142.683 19.7754 144.323 19.7732 146.034C19.7689 147.186 20.0796 148.317 20.6719 149.305H6.82047ZM62.7714 139.542H57.026C55.4972 139.514 54.0056 140.014 52.8029 140.957C51.6002 141.899 50.7599 143.228 50.4238 144.717C50.2377 145.647 50.2586 146.606 50.4851 147.527C50.6363 148.142 50.8767 148.729 51.1971 149.272H41.3597V143.35C40.9802 143.339 40.6022 143.402 40.2474 143.537C39.8925 143.672 39.5677 143.875 39.2916 144.135C39.0154 144.395 38.7933 144.707 38.638 145.053C38.4826 145.399 38.3971 145.772 38.3862 146.151V152.023C38.4282 152.837 38.235 155.219 36.8826 156.401C36.3491 156.855 35.6836 157.126 34.9843 157.173V157.14C34.6215 157.142 34.263 157.219 33.9306 157.364C33.5982 157.509 33.2988 157.721 33.0506 157.985C32.8024 158.249 32.6105 158.561 32.4867 158.902C32.3628 159.242 32.3095 159.605 32.33 159.966H34.7155C36.2577 159.967 37.7486 159.413 38.9154 158.406C41.0093 156.594 41.3199 153.647 41.3583 152.451H56.6612L56.6732 152.451L56.6795 152.451H62.6446V152.443H62.7714C62.7981 152.443 62.8237 152.432 62.8426 152.413C62.8615 152.394 62.8722 152.369 62.8722 152.342V139.643C62.8702 139.616 62.859 139.592 62.8405 139.574C62.822 139.555 62.7975 139.544 62.7714 139.542ZM59.6803 149.272V142.822C59.6803 142.797 59.6705 142.774 59.6532 142.756C59.6359 142.739 59.6124 142.729 59.5879 142.729H57.0176C56.1974 142.703 55.3947 142.97 54.7541 143.482C54.1134 143.994 53.677 144.718 53.5233 145.522C53.4553 145.981 53.4856 146.448 53.6121 146.894C53.7385 147.339 53.9583 147.753 54.2569 148.107C54.5555 148.462 54.926 148.749 55.344 148.95C55.7598 149.149 56.2131 149.259 56.6742 149.272H59.6803ZM101.401 149.305V137.587C101.403 136.744 101.741 135.935 102.339 135.339C102.937 134.743 103.748 134.408 104.593 134.408V152.476H66.5842V134.341C67.4285 134.341 68.2382 134.676 68.8352 135.272C69.4323 135.869 69.7677 136.677 69.7677 137.52V149.263H79.503C78.8234 148.101 78.5294 146.753 78.663 145.413C78.8687 143.783 79.6665 142.284 80.9051 141.202C82.1437 140.12 83.737 139.529 85.3828 139.542H91.1702V145.925C87.6927 146.16 87.9867 142.729 87.9867 142.729H85.24C84.4427 142.711 83.6644 142.974 83.0411 143.47C82.4177 143.967 81.989 144.667 81.8297 145.447C81.7445 145.921 81.765 146.409 81.8899 146.874C82.0147 147.34 82.2407 147.772 82.5519 148.14C82.8631 148.509 83.2517 148.804 83.6902 149.006C84.1287 149.207 84.6062 149.309 85.0888 149.305H101.401ZM161.468 151.729C162.065 152.325 162.875 152.66 163.719 152.66V137.495C163.719 136.652 163.384 135.843 162.787 135.247C162.19 134.651 161.38 134.316 160.536 134.316V149.481C160.536 150.324 160.871 151.133 161.468 151.729ZM10.5922 159.882C10.5922 159.463 10.6751 159.049 10.8362 158.662C10.9972 158.275 11.2332 157.924 11.5306 157.628C11.828 157.333 12.1809 157.099 12.5691 156.94C12.9573 156.782 13.3731 156.701 13.7925 156.703H21.3523C21.3523 157.122 21.2697 157.536 21.1092 157.922C20.9486 158.308 20.7134 158.659 20.4169 158.954C20.1204 159.25 19.7684 159.484 19.3812 159.643C18.994 159.802 18.5792 159.883 18.1604 159.882H10.5922ZM156.587 152.451H129.708L129.767 152.476C124.752 152.476 122.913 149.297 122.913 149.297C122.237 148.133 121.943 146.786 122.073 145.447C122.278 143.816 123.076 142.318 124.315 141.236C125.554 140.153 127.147 139.563 128.793 139.575H134.572V145.959C131.103 146.194 131.388 142.763 131.388 142.763H128.625C127.825 142.736 127.043 142.996 126.418 143.494C125.792 143.992 125.366 144.696 125.214 145.481C125.135 145.951 125.159 146.433 125.286 146.893C125.412 147.354 125.637 147.781 125.946 148.145C126.255 148.509 126.639 148.801 127.073 149.002C127.507 149.202 127.979 149.306 128.457 149.305H143.879V137.495C143.879 136.652 144.214 135.843 144.811 135.247C145.408 134.651 146.218 134.316 147.062 134.316V149.305H153.404V137.588C153.404 136.744 153.739 135.936 154.336 135.34C154.933 134.743 155.743 134.408 156.587 134.408V152.451ZM178.371 152.443H167.591C167.591 152.443 167.18 149.54 171.564 149.263H176.932C177.41 149.264 177.882 149.16 178.315 148.96C178.749 148.759 179.134 148.467 179.442 148.103C179.751 147.739 179.976 147.312 180.103 146.851C180.229 146.391 180.254 145.909 180.174 145.439C180.023 144.654 179.596 143.95 178.971 143.452C178.346 142.954 177.563 142.694 176.764 142.721H174.227V142.729H171.564C167.18 142.452 167.591 139.542 167.591 139.542H174.227V139.542H176.646C178.299 139.519 179.903 140.105 181.15 141.188C182.398 142.271 183.202 143.776 183.408 145.413C183.538 146.753 183.244 148.099 182.568 149.263H189.498V143.366C189.498 142.523 189.833 141.715 190.43 141.119C191.027 140.522 191.837 140.187 192.681 140.187V149.263H199.402C198.743 148.109 198.458 146.779 198.586 145.455C198.792 143.824 199.59 142.326 200.828 141.244C202.067 140.161 203.66 139.571 205.306 139.584H211.085V145.95C207.616 146.185 207.901 142.754 207.901 142.754H205.163C204.364 142.728 203.581 142.987 202.956 143.485C202.331 143.983 201.904 144.688 201.753 145.472C201.673 145.942 201.698 146.425 201.824 146.885C201.95 147.345 202.176 147.772 202.485 148.136C202.793 148.5 203.178 148.793 203.611 148.993C204.045 149.194 204.517 149.297 204.995 149.297H210.346C214.73 149.574 214.319 152.476 214.319 152.476H178.368L178.371 152.443ZM187.51 157.83C187.211 158.129 186.805 158.297 186.382 158.297C185.96 158.295 185.556 158.126 185.259 157.827C184.961 157.529 184.794 157.125 184.794 156.704V156.611C184.778 156.393 184.808 156.173 184.88 155.967C184.953 155.76 185.068 155.571 185.217 155.41C185.367 155.25 185.547 155.122 185.748 155.035C185.95 154.947 186.167 154.902 186.386 154.902C186.605 154.902 186.822 154.947 187.023 155.035C187.224 155.122 187.405 155.25 187.555 155.41C187.704 155.571 187.819 155.76 187.891 155.967C187.964 156.173 187.993 156.393 187.978 156.611V156.704C187.978 157.126 187.809 157.532 187.51 157.83Z" fill="#999999"/>
<path d="M210.984 103.239V103.474C210.984 103.888 211.149 104.284 211.442 104.577C211.735 104.87 212.132 105.034 212.547 105.034H212.79C213.205 105.034 213.602 104.87 213.895 104.577C214.188 104.284 214.353 103.888 214.353 103.474V103.239C214.353 102.825 214.188 102.428 213.895 102.136C213.602 101.843 213.205 101.679 212.79 101.679H212.547C212.132 101.679 211.735 101.843 211.442 102.136C211.149 102.428 210.984 102.825 210.984 103.239Z" fill="#999999"/>
<path fill-rule="evenodd" clip-rule="evenodd" d="M27.8875 108.903C29.1577 109.899 30.0446 111.303 30.3983 112.877L30.4067 112.826C30.6071 113.819 30.584 114.845 30.339 115.828C30.0941 116.811 29.6334 117.727 28.9903 118.51C28.3472 119.294 27.5378 119.925 26.6206 120.358C25.7034 120.791 24.7014 121.014 23.6869 121.013H21.5366C21.5366 121.013 22.0238 118.044 24.1573 117.658H24.2077L24.4765 117.608C25.3041 117.413 26.0313 116.921 26.52 116.227C27.0087 115.532 27.2249 114.682 27.1274 113.839C27.03 112.995 26.6258 112.217 25.9915 111.651C25.3573 111.086 24.5372 110.773 23.6869 110.771H20.6042V121.047H20.3606C19.5334 121.047 18.7399 120.719 18.1541 120.136C17.5683 119.552 17.2382 118.761 17.2359 117.935V101.494C17.2304 101.081 17.3071 100.671 17.4616 100.287C17.6162 99.9039 17.8454 99.5549 18.1362 99.2607C18.4269 98.9665 18.7732 98.7329 19.1551 98.5735C19.5369 98.4141 19.9467 98.332 20.3606 98.332H20.5958V107.408H23.4265C25.0415 107.378 26.6172 107.906 27.8875 108.903ZM64.5938 98.332H64.3586V117.935C64.3586 118.76 64.687 119.552 65.2714 120.135C65.8558 120.719 66.6485 121.047 67.475 121.047H67.7185V101.494C67.7196 101.084 67.6396 100.678 67.4829 100.299C67.3263 99.9198 67.0962 99.5754 66.8058 99.2854C66.5154 98.9955 66.1705 98.7657 65.7909 98.6092C65.4113 98.4528 65.0045 98.3729 64.5938 98.374V98.332ZM14.1283 117.935V105.168V104.975C14.1 103.978 13.8531 102.998 13.4049 102.106C12.9567 101.214 12.3181 100.431 11.5341 99.8124C10.7501 99.1934 9.83981 98.7536 8.86724 98.5239C7.89468 98.2942 6.88351 98.2803 5.90494 98.4829C4.33733 98.8428 2.94148 99.7304 1.95184 100.997C0.962207 102.263 0.439075 103.831 0.470317 105.437V121.055H0.697109C1.10706 121.055 1.51297 120.974 1.89161 120.817C2.27024 120.66 2.61416 120.43 2.90364 120.14C3.19313 119.851 3.4225 119.507 3.57861 119.128C3.73473 118.75 3.81452 118.344 3.81341 117.935V111.56H8.85325C8.85325 110.67 8.49926 109.816 7.86916 109.187C7.23906 108.558 6.38446 108.205 5.49336 108.205H3.82181V105.319C3.80511 104.476 4.08523 103.654 4.6133 102.997C5.14137 102.339 5.88389 101.888 6.71132 101.721C7.2094 101.636 7.71992 101.662 8.20716 101.795C8.69441 101.928 9.14664 102.166 9.53223 102.492C9.91782 102.818 10.2275 103.224 10.4395 103.682C10.6516 104.14 10.761 104.638 10.76 105.143V120.786C10.7588 120.818 10.7641 120.849 10.7755 120.878C10.7869 120.907 10.8042 120.933 10.8263 120.955C10.8483 120.977 10.8747 120.994 10.9038 121.006C10.9329 121.017 10.964 121.023 10.9952 121.021C11.4051 121.022 11.8113 120.943 12.1903 120.787C12.5694 120.631 12.9139 120.402 13.2042 120.113C13.4944 119.824 13.7247 119.48 13.8819 119.102C14.039 118.724 14.1199 118.319 14.1199 117.909L14.1283 117.935ZM74.1695 101.494V121.046H73.9259C73.0986 121.046 72.3051 120.719 71.7193 120.135C71.1336 119.552 70.8034 118.761 70.8012 117.934V98.3738H71.0448C71.8735 98.3738 72.6683 98.7026 73.2543 99.2877C73.8403 99.8729 74.1695 100.667 74.1695 101.494ZM62.1999 114.63V108.205H62.0319C61.1793 108.207 60.3623 108.546 59.7595 109.148C59.1567 109.75 58.817 110.566 58.8148 111.417V114.915C58.7294 115.795 58.3103 116.609 57.6433 117.191C56.9763 117.772 56.112 118.077 55.2272 118.042C54.3425 118.008 53.5044 117.637 52.8846 117.006C52.2648 116.375 51.9102 115.531 51.8934 114.647V111.56H56.4293C56.4987 110.82 56.3022 110.08 55.8749 109.471C55.3779 108.796 54.6364 108.342 53.8085 108.205H48.5167V114.37C48.4884 115.983 49.0175 117.557 50.0149 118.827C51.0124 120.096 52.4173 120.984 53.9933 121.34C54.9882 121.54 56.0151 121.517 56.9999 121.272C57.9848 121.028 58.9029 120.568 59.6881 119.926C60.4733 119.284 61.1059 118.476 61.5403 117.56C61.9746 116.644 62.1999 115.643 62.1999 114.63ZM86.3739 119.897C86.5285 120.27 86.6302 120.663 86.6762 121.063L83.5095 121.047C82.5044 121.02 81.5175 120.772 80.6192 120.321C79.7209 119.87 78.9332 119.227 78.3124 118.437C77.6915 117.647 77.2527 116.731 77.0273 115.752C76.8019 114.774 76.7953 113.757 77.0082 112.776C77.3798 111.223 78.2723 109.844 79.5375 108.867C80.8027 107.891 82.3644 107.376 83.9631 107.408H90.2209V120.837C90.2209 120.872 90.214 120.906 90.2003 120.938C90.1867 120.971 90.1668 121 90.1417 121.024C90.1166 121.048 90.0869 121.067 90.0544 121.08C90.0218 121.092 89.987 121.098 89.9521 121.097C89.1069 121.031 88.3178 120.649 87.743 120.027C87.1681 119.405 86.8501 118.588 86.8526 117.742V110.83H83.8959C83.0773 110.815 82.2785 111.083 81.6354 111.589C80.9923 112.095 80.5445 112.808 80.368 113.607C80.2666 114.106 80.2769 114.622 80.3982 115.118C80.5195 115.613 80.7488 116.075 81.0698 116.472C81.3907 116.868 81.7954 117.189 82.2549 117.412C82.7144 117.634 83.2174 117.753 83.7279 117.759C84.1898 117.829 84.6343 117.986 85.0383 118.22C85.3871 118.436 85.6874 118.721 85.9203 119.059C85.966 119.127 86.0001 119.188 86.0358 119.252C86.0525 119.281 86.0695 119.312 86.0883 119.344C86.2018 119.518 86.2974 119.704 86.3739 119.897ZM38.9909 117.683H38.9405L38.6717 117.633C37.8441 117.438 37.1169 116.947 36.6282 116.252C36.1395 115.557 35.9233 114.707 36.0207 113.864C36.1182 113.02 36.5224 112.242 37.1566 111.676C37.7909 111.111 38.611 110.798 39.4613 110.796H42.5188V121.072H42.7624C43.1723 121.073 43.5784 120.993 43.9575 120.837C44.3365 120.681 44.6811 120.452 44.9713 120.163C45.2616 119.874 45.4919 119.531 45.649 119.152C45.8062 118.774 45.8871 118.369 45.8871 117.96V101.494C45.8882 101.084 45.8081 100.678 45.6515 100.299C45.4948 99.9197 45.2647 99.5752 44.9743 99.2853C44.6839 98.9953 44.339 98.7655 43.9594 98.6091C43.5798 98.4527 43.173 98.3727 42.7624 98.3738H42.5272V107.45H39.7048C38.0888 107.42 36.5119 107.947 35.2403 108.944C33.9687 109.94 33.0801 111.344 32.7247 112.919C32.5243 113.912 32.5474 114.937 32.7924 115.92C33.0373 116.903 33.498 117.819 34.1411 118.603C34.7842 119.386 35.5936 120.017 36.5108 120.45C37.428 120.883 38.43 121.106 39.4445 121.105H41.5948C41.5948 121.105 41.116 118.111 38.9741 117.75L38.9909 117.683Z" fill="#999999"/>
<path fill-rule="evenodd" clip-rule="evenodd" d="M186.701 107.743V105.034L186.717 105.051C186.724 103.245 187.446 101.515 188.725 100.239C190.005 98.9629 191.738 98.2442 193.546 98.2397H196.587C196.546 99.0677 196.218 99.8557 195.659 100.468C195.099 101.08 194.343 101.479 193.521 101.595C193.066 101.595 192.615 101.685 192.195 101.859C191.775 102.033 191.393 102.288 191.071 102.61C190.75 102.932 190.495 103.314 190.322 103.734C190.148 104.154 190.059 104.605 190.061 105.059V107.475H195.327V107.718C195.325 108.545 194.995 109.337 194.41 109.922C193.824 110.507 193.031 110.836 192.202 110.838H190.061V117.935C190.061 118.344 189.98 118.749 189.823 119.127C189.665 119.506 189.435 119.849 189.145 120.138C188.855 120.427 188.51 120.656 188.131 120.812C187.752 120.968 187.346 121.048 186.936 121.047H186.701V111.862V110.838H184.828V110.595C184.829 109.99 185.007 109.397 185.339 108.891C185.672 108.385 186.145 107.986 186.701 107.743ZM154.068 98.3319H153.824V117.935C153.826 118.761 154.156 119.552 154.742 120.135C155.328 120.719 156.121 121.046 156.949 121.046H157.192V114.437C157.192 113.518 157.558 112.637 158.208 111.987C158.859 111.338 159.741 110.973 160.661 110.973C161.581 110.973 162.464 111.338 163.114 111.987C163.765 112.637 164.13 113.518 164.13 114.437V117.683C164.13 118.573 164.484 119.426 165.115 120.055C165.745 120.685 166.599 121.038 167.49 121.038V114.428C167.488 112.616 166.766 110.878 165.483 109.597C164.199 108.315 162.459 107.594 160.645 107.592C159.42 107.598 158.221 107.937 157.175 108.574V101.494C157.175 100.667 156.846 99.8729 156.26 99.2878C155.674 98.7026 154.879 98.3738 154.051 98.3738L154.068 98.3319ZM110.321 121.046V105.168L110.338 105.143C110.338 104.224 109.973 103.343 109.322 102.693C108.672 102.044 107.789 101.679 106.869 101.679C105.949 101.679 105.067 102.044 104.416 102.693C103.766 103.343 103.4 104.224 103.4 105.143V108.205H105.021C105.912 108.205 106.767 108.558 107.397 109.187C108.027 109.816 108.381 110.67 108.381 111.56H103.392V117.943C103.389 118.769 103.059 119.561 102.474 120.144C101.888 120.727 101.094 121.055 100.267 121.055H100.023V105.437C99.9939 103.824 100.523 102.25 101.52 100.982C102.518 99.7134 103.924 98.8278 105.5 98.4745C106.476 98.2802 107.483 98.3007 108.45 98.5347C109.418 98.7687 110.322 99.2105 111.101 99.8293C111.88 100.448 112.514 101.229 112.96 102.118C113.405 103.007 113.652 103.982 113.681 104.975V105.168V117.935C113.681 118.344 113.6 118.749 113.443 119.127C113.286 119.505 113.056 119.849 112.766 120.138C112.475 120.427 112.131 120.656 111.752 120.812C111.373 120.968 110.967 121.048 110.557 121.046H110.321ZM180.503 120.055C179.873 119.426 179.519 118.573 179.519 117.683L179.628 110.813H176.545C175.625 110.813 174.743 111.178 174.092 111.828C173.442 112.477 173.076 113.358 173.076 114.277C173.076 115.196 173.442 116.077 174.092 116.727C174.743 117.376 175.625 117.741 176.545 117.741C177.046 117.796 177.53 117.956 177.965 118.211C178.297 118.433 178.583 118.718 178.805 119.05C178.851 119.118 178.885 119.179 178.92 119.243L178.932 119.264L178.952 119.299L178.973 119.335C179.086 119.51 179.182 119.695 179.258 119.889C179.418 120.26 179.52 120.653 179.561 121.055H176.411C175.404 121.045 174.411 120.813 173.504 120.376C172.597 119.939 171.797 119.307 171.163 118.526C170.528 117.745 170.074 116.833 169.833 115.857C169.591 114.88 169.569 113.863 169.767 112.876C170.122 111.302 171.011 109.898 172.282 108.902C173.554 107.905 175.131 107.378 176.747 107.407H182.879V121.038C181.988 121.038 181.133 120.684 180.503 120.055ZM120.729 121.046V101.494C120.73 101.085 120.65 100.679 120.494 100.301C120.338 99.922 120.108 99.578 119.819 99.2881C119.529 98.9983 119.186 98.7683 118.807 98.6114C118.428 98.4545 118.022 98.3737 117.612 98.3737H117.369V117.934C117.371 118.76 117.701 119.552 118.287 120.135C118.873 120.719 119.666 121.046 120.494 121.046H120.729ZM214.352 121.122H214.109C213.281 121.122 212.488 120.794 211.902 120.211C211.316 119.628 210.986 118.836 210.984 118.01V107.416H211.228C212.056 107.418 212.849 107.748 213.435 108.332C214.02 108.917 214.35 109.71 214.352 110.536V121.122ZM148.364 103.306C146.622 101.042 144.145 99.4536 141.358 98.8157C138.571 98.1777 135.649 98.5294 133.093 99.8104C130.538 101.091 128.51 103.222 127.357 105.834C126.204 108.447 125.999 111.38 126.777 114.127C127.556 116.875 129.268 119.266 131.621 120.888C133.973 122.511 136.818 123.265 139.667 123.02C142.516 122.774 145.19 121.545 147.229 119.544C149.269 117.543 150.546 114.895 150.842 112.055C151.315 111.789 151.71 111.403 151.988 110.936C152.265 110.47 152.414 109.938 152.421 109.396V109.153H140.006C139.178 109.155 138.385 109.484 137.799 110.069C137.214 110.654 136.884 111.446 136.881 112.273C136.881 112.337 136.907 112.399 136.953 112.445C136.998 112.49 137.06 112.516 137.125 112.516H147.591C147.272 114.202 146.479 115.762 145.305 117.014C144.131 118.266 142.624 119.158 140.96 119.586C139.297 120.014 137.546 119.961 135.912 119.432C134.278 118.903 132.828 117.92 131.733 116.599C130.638 115.277 129.942 113.672 129.727 111.97C129.511 110.268 129.786 108.54 130.518 106.988C131.25 105.437 132.41 104.125 133.861 103.207C135.312 102.289 136.995 101.803 138.713 101.805C140.645 101.798 142.528 102.416 144.08 103.566C144.08 103.566 146.953 105.437 148.364 103.306ZM203.089 107.592H208.12C208.107 108.473 207.747 109.314 207.118 109.932C206.49 110.551 205.643 110.897 204.76 110.897H203.391C202.937 110.897 202.487 110.987 202.068 111.16C201.649 111.334 201.268 111.589 200.947 111.91C200.626 112.231 200.372 112.612 200.199 113.031C200.026 113.45 199.938 113.899 199.939 114.353V117.775C199.939 118.665 199.585 119.518 198.955 120.148C198.325 120.777 197.47 121.13 196.579 121.13V114.37C196.582 112.62 197.26 110.94 198.472 109.677C199.685 108.415 201.339 107.668 203.089 107.592Z" fill="#999999"/>
<path fill-rule="evenodd" clip-rule="evenodd" d="M53.6863 76.8654L54.5055 77.8483L57.0255 80.9434C57.987 82.1071 59.1688 83.0701 60.5032 83.7775C61.8376 84.4849 63.2986 84.9228 64.8025 85.0662C66.3065 85.2095 67.824 85.0555 69.2684 84.6129C70.7127 84.1703 72.0555 83.4478 73.2201 82.4868L70.1542 78.7626L64.056 71.3728L56.7315 62.5151L56.0175 61.6763L54.6819 60.0574C53.719 58.8929 52.5355 57.9293 51.1994 57.2218C49.8632 56.5143 48.4005 56.0768 46.8948 55.9343C45.3892 55.7917 43.8702 55.9469 42.4247 56.391C40.9791 56.8351 39.6355 57.5594 38.4705 58.5224L45.268 66.7495C42.1914 67.3359 39.0097 67.4027 35.8565 66.9182C28.7008 65.8188 22.2598 61.9672 17.9109 56.1871C13.562 50.407 11.6503 43.1572 12.5846 35.9879C13.5189 28.8185 17.2251 22.2988 22.9106 17.8227C28.5961 13.3467 35.8097 11.2696 43.0089 12.0356C50.2081 12.8016 56.8214 16.3499 61.4348 21.9219C66.0481 27.4938 68.2953 34.647 67.6959 41.8519C67.0964 49.0569 63.6978 55.7417 58.2269 60.4769L65.7866 69.6533C68.9298 66.9091 71.5845 63.7097 73.6822 60.192C74.5722 61.6916 75.5665 63.138 76.662 64.5198C83.0222 72.5421 92.284 77.7481 102.452 79.0158C108.772 79.804 115.129 79.0309 120.989 76.84L121.821 77.8482L124.341 80.9434C125.303 82.1071 126.485 83.0701 127.819 83.7775C129.153 84.4849 130.614 84.9228 132.118 85.0661C133.622 85.2094 135.14 85.0554 136.584 84.6128C138.029 84.1703 139.371 83.4478 140.536 82.4868L137.479 78.7625L131.389 71.4147L124.115 62.5151L123.401 61.6763L122.065 60.0574C121.102 58.8941 119.919 57.9316 118.584 57.2248C117.248 56.5181 115.786 56.0809 114.282 55.9384C112.777 55.7959 111.259 55.9507 109.814 56.3941C108.37 56.8374 107.027 57.5607 105.862 58.5224L112.66 66.7498C112.182 66.8421 111.701 66.9219 111.218 66.9892C106.772 67.6078 102.241 67.1387 98.0162 65.6221C93.7914 64.1055 89.9987 61.5869 86.9643 58.2828C83.9298 54.9787 81.7445 50.988 80.5961 46.654C79.4478 42.3199 79.3708 37.7722 80.3719 33.4019C81.3729 29.0315 83.422 24.9694 86.3429 21.5648C89.2638 18.1602 92.9691 15.515 97.1401 13.8567C101.311 12.1985 105.823 11.5767 110.288 12.0449C115.661 12.6078 120.751 14.726 124.935 18.1391C129.118 21.5523 132.211 26.1117 133.834 31.2569C135.457 36.402 135.54 41.9087 134.071 47.0999C132.602 52.2911 129.647 56.9406 125.567 60.4769L133.068 69.6198C136.178 66.8935 138.804 63.7187 140.879 60.2302C141.744 61.6765 142.705 63.0732 143.761 64.4102C150.141 72.4901 159.445 77.7433 169.667 79.0379C176.042 79.8452 182.456 79.0725 188.37 76.8646L189.196 77.8651L191.716 80.9603C192.677 82.1239 193.859 83.087 195.193 83.7944C196.528 84.5018 197.989 84.9397 199.493 85.083C200.997 85.2263 202.514 85.0723 203.958 84.6297C205.403 84.1871 206.746 83.4647 207.91 82.5036L204.828 78.7375L198.729 71.3896L191.405 62.532L190.682 61.6932L189.347 60.0827C187.408 57.7553 184.627 56.2872 181.61 55.9981C178.592 55.709 175.582 56.6224 173.236 58.5393L180.01 66.7378C176.915 67.335 173.712 67.4059 170.538 66.9182C163.382 65.8188 156.941 61.9672 152.592 56.1871C148.243 50.407 146.331 43.1572 147.266 35.9879C148.2 28.8185 151.906 22.2988 157.592 17.8227C163.277 13.3467 170.491 11.2696 177.69 12.0356C184.889 12.8016 191.503 16.3499 196.116 21.9219C200.729 27.4938 202.977 34.647 202.377 41.8519C201.778 49.0569 198.379 55.7417 192.908 60.4769L200.468 69.6533C208.225 62.8806 213.007 53.3355 213.784 43.0751C214.56 32.8146 211.269 22.6604 204.618 14.8005C197.968 6.94066 188.492 2.00453 178.232 1.05586C167.972 0.107202 157.749 3.22197 149.767 9.72891C146.138 12.6871 143.104 16.2387 140.769 20.1938C139.687 18.3987 138.456 16.6826 137.082 15.0649C130.453 7.26265 121.02 2.37338 110.815 1.45072C100.61 0.52806 90.4508 3.64587 82.5262 10.1323C79.0228 12.9999 76.0802 16.4244 73.7924 20.232C72.6711 18.328 71.3836 16.51 69.9372 14.8005C63.2871 6.94066 53.8108 2.00453 43.5506 1.05586C33.2903 0.107202 23.0676 3.22197 15.0854 9.72891C7.10315 16.2359 2.00056 25.614 0.877222 35.8424C-0.246116 46.0707 2.69974 56.3303 9.07993 64.4102C15.4601 72.4901 24.7639 77.7433 34.9861 79.0379C41.3604 79.8451 47.7735 79.0727 53.6863 76.8654Z" fill="#999999"/>
</g>
<defs>
<clipPath id="clip0_436_159966">
<rect width="214" height="160" fill="white" transform="translate(0.352539)"/>
</clipPath>
</defs>
</svg>
