<svg width="1213" height="268" fill="none" xmlns="http://www.w3.org/2000/svg"><path opacity=".65" fill-rule="evenodd" clip-rule="evenodd" d="M.133.417H1212.13v267.558H.133V.417zM918.227 103.39V74.7l.177.177a72.396 72.396 0 0172.215-72.125h32.151a37.735 37.735 0 01-9.82 23.597 37.722 37.722 0 01-22.598 11.933 36.596 36.596 0 00-36.595 36.684v25.581h55.693v2.576a33.134 33.134 0 01-33.043 33.043h-22.65v75.145a32.97 32.97 0 01-2.517 12.632 32.946 32.946 0 01-30.526 20.322h-2.487V136.166h-19.808v-2.576a33.048 33.048 0 0119.808-30.2zM573.144 3.728h-2.576V211.31a33.04 33.04 0 0033.042 32.954h2.576V174.27a36.685 36.685 0 0173.369 0v34.375a35.531 35.531 0 0035.53 35.53v-69.994a72.481 72.481 0 00-72.392-72.391 71.06 71.06 0 00-36.685 10.392V37.215a33.045 33.045 0 00-33.042-33.043l.178-.444zm-462.6 240.536V76.12l.178-.267a36.683 36.683 0 10-73.37 0v32.421h17.144a35.527 35.527 0 0135.53 35.53H37.264v67.595a33.042 33.042 0 01-33.043 32.954H1.646V78.963A74.168 74.168 0 0159.559 5.237a72.391 72.391 0 0186.515 68.839V211.31a32.97 32.97 0 01-2.517 12.632 32.946 32.946 0 01-30.526 20.322h-2.487zm742.143-10.497a35.531 35.531 0 01-10.406-25.124l1.154-72.747h-32.598a36.683 36.683 0 00-36.685 36.685 36.685 36.685 0 0036.685 36.684 37.834 37.834 0 0115.011 4.974 32.234 32.234 0 018.882 8.883c.484.725.844 1.369 1.221 2.042h.001l.003.007.008.013c.173.309.35.625.544.958a32.951 32.951 0 013.02 5.862 42.297 42.297 0 013.198 12.347h-33.309a72.406 72.406 0 01-55.496-26.78 72.394 72.394 0 01-14.764-59.824 74.255 74.255 0 0173.813-57.913h64.841v144.339a35.529 35.529 0 01-25.123-10.406zm-632.09 10.495V37.212a32.945 32.945 0 00-9.62-23.358 32.961 32.961 0 00-23.334-9.684h-2.576v207.138a33.045 33.045 0 0033.043 32.954h2.487zm990.033.802h-2.57c-8.75 0-17.14-3.469-23.34-9.647a33.087 33.087 0 01-9.71-23.307V99.925h2.58a33.123 33.123 0 0133.04 33.043v112.096zM512.829 56.402A130.04 130.04 0 00284.56 170.993a130.038 130.038 0 00254.472-21.947 32.779 32.779 0 0016.699-28.157v-2.576H424.448a33.126 33.126 0 00-23.338 9.704 33.126 33.126 0 00-9.704 23.338 2.576 2.576 0 002.576 2.576h110.675a95.668 95.668 0 01-123.505 73.236 95.668 95.668 0 01-57.036-131.772 95.669 95.669 0 0186.654-54.892 94.686 94.686 0 0156.758 18.653s30.378 19.808 45.301-2.754zm578.691 45.388h53.21a35.517 35.517 0 01-10.59 24.779 35.541 35.541 0 01-24.94 10.218h-14.48c-4.8 0-9.55.947-13.99 2.787a36.532 36.532 0 00-19.76 19.811 36.334 36.334 0 00-2.75 13.997v36.241c0 9.423-3.75 18.46-10.41 25.123a35.522 35.522 0 01-25.12 10.406V173.56a71.92 71.92 0 0120.02-49.693 71.941 71.941 0 0148.81-22.077zm82.77-43.53v-2.52c0-4.439 1.76-8.697 4.89-11.836A16.695 16.695 0 011190.99 39h2.61c4.42 0 8.67 1.763 11.8 4.903a16.767 16.767 0 014.89 11.837v2.52c0 4.44-1.76 8.697-4.89 11.837A16.672 16.672 0 011193.6 75h-2.61c-4.43 0-8.67-1.764-11.81-4.903a16.767 16.767 0 01-4.89-11.837z" fill="#fff"/></svg>