<svg width="215" height="160" fill="none" xmlns="http://www.w3.org/2000/svg"><g clip-path="url(#clip0_436_159966)" fill="#999"><path d="M70.171 79.106l.026.026-.008-.026h-.018zM57.614 137.68a1.586 1.586 0 01-1.588-1.586v-.092a1.589 1.589 0 01.954-1.576 1.59 1.59 0 011.275 0 1.594 1.594 0 01.954 1.576v.092a1.592 1.592 0 01-1.596 1.586zm27.845 0a1.597 1.597 0 001.596-1.586v-.092a1.589 1.589 0 00-.955-1.576 1.59 1.59 0 00-1.274 0 1.593 1.593 0 00-.955 1.576v.092a1.586 1.586 0 001.588 1.586z"/><path fill-rule="evenodd" clip-rule="evenodd" d="M111.699 152.66a3.177 3.177 0 01-3.183-3.179v-15.165a3.177 3.177 0 013.183 3.179v15.165zM6.82 149.305v-.033a3.271 3.271 0 110-6.543h2.547c.074.006 3.432.247 3.208-3.187H9.593v.002-.002H6.82a6.45 6.45 0 00-2.545.423 6.456 6.456 0 000 12.063c.811.31 1.677.454 2.545.423h23.091l.017.033a3.177 3.177 0 003.183-3.179h-6.88v.034a3.27 3.27 0 110-6.543h2.904c-.018.478.006 3.344 3.187 3.129v-6.35h-6.09a6.485 6.485 0 00-4.565 1.897 6.464 6.464 0 00-1.894 4.562 6.315 6.315 0 00.899 3.271H6.82zm55.951-9.763h-5.745a6.647 6.647 0 00-6.602 5.175 6.458 6.458 0 00.773 4.555H41.36v-5.922a2.892 2.892 0 00-2.722 1.703 2.91 2.91 0 00-.252 1.098v5.872c.042.814-.151 3.196-1.503 4.378a3.268 3.268 0 01-1.899.772v-.033a2.673 2.673 0 00-2.497 1.762 2.67 2.67 0 00-.157 1.064h2.386a6.422 6.422 0 004.2-1.56c2.093-1.812 2.404-4.759 2.442-5.955h21.287v-.008h.126a.1.1 0 00.072-.03.1.1 0 00.03-.071v-12.699a.106.106 0 00-.032-.069.107.107 0 00-.07-.032zm-3.09 9.73v-6.45a.094.094 0 00-.028-.066.094.094 0 00-.065-.027h-2.57a3.45 3.45 0 00-2.264.753 3.439 3.439 0 00-1.23 2.04 3.269 3.269 0 001.82 3.428c.416.199.87.309 1.33.322h3.006zm41.72.033v-11.718a3.187 3.187 0 013.192-3.179v18.068H66.584v-18.135a3.178 3.178 0 013.184 3.179v11.743h9.735a6.374 6.374 0 01-.84-3.85 6.708 6.708 0 012.242-4.211 6.726 6.726 0 014.478-1.66h5.787v6.383c-3.477.235-3.183-3.196-3.183-3.196H85.24a3.399 3.399 0 00-3.41 2.718 3.273 3.273 0 00.722 2.693 3.287 3.287 0 002.537 1.165H101.4zm60.067 2.424a3.187 3.187 0 002.251.931v-15.165a3.177 3.177 0 00-3.183-3.179v15.165c0 .843.335 1.652.932 2.248zm-150.876 8.153a3.172 3.172 0 01.939-2.254 3.194 3.194 0 012.261-.925h7.56a3.174 3.174 0 01-1.97 2.94c-.388.159-.803.24-1.222.239h-7.568zm145.995-7.431h-26.879l.059.025c-5.015 0-6.854-3.179-6.854-3.179a6.43 6.43 0 01-.84-3.85 6.7 6.7 0 012.242-4.211 6.728 6.728 0 014.478-1.661h5.779v6.384c-3.469.235-3.184-3.196-3.184-3.196h-2.763a3.36 3.36 0 00-3.411 2.718 3.27 3.27 0 00.072 1.412c.126.461.351.888.66 1.252a3.291 3.291 0 002.511 1.16h15.422v-11.81a3.177 3.177 0 013.183-3.179v14.989h6.342v-11.717a3.184 3.184 0 013.183-3.18v18.043zm21.784-.008h-10.78s-.411-2.903 3.973-3.18h5.368a3.283 3.283 0 003.242-3.824 3.361 3.361 0 00-3.41-2.718h-2.537v.008h-2.663c-4.384-.277-3.973-3.187-3.973-3.187h9.055a6.727 6.727 0 014.504 1.646 6.703 6.703 0 012.258 4.225 6.429 6.429 0 01-.84 3.85h6.93v-5.897a3.184 3.184 0 013.183-3.179v9.076h6.721a6.43 6.43 0 01-.816-3.808 6.71 6.71 0 012.242-4.211 6.722 6.722 0 014.478-1.66h5.779v6.366c-3.469.235-3.184-3.196-3.184-3.196h-2.738a3.367 3.367 0 00-2.207.731 3.352 3.352 0 00-1.203 1.987 3.274 3.274 0 001.858 3.521c.434.201.906.304 1.384.304h5.351c4.384.277 3.973 3.179 3.973 3.179h-35.951l.003-.033zm9.139 5.387a1.596 1.596 0 01-1.128.467 1.594 1.594 0 01-1.588-1.593v-.093a1.601 1.601 0 01.423-1.201 1.599 1.599 0 012.761 1.201v.093c0 .422-.169.828-.468 1.126z"/><path d="M210.984 103.239v.235a1.56 1.56 0 001.563 1.56h.243a1.561 1.561 0 001.563-1.56v-.235a1.561 1.561 0 00-1.563-1.56h-.243a1.561 1.561 0 00-1.563 1.56z"/><path fill-rule="evenodd" clip-rule="evenodd" d="M27.887 108.903a7 7 0 012.511 3.974l.009-.051a6.83 6.83 0 01-3.786 7.532 6.855 6.855 0 01-2.934.655h-2.15s.487-2.969 2.62-3.355h.05l.27-.05a3.46 3.46 0 001.515-5.957 3.477 3.477 0 00-2.305-.88h-3.083v10.276h-.243a3.12 3.12 0 01-3.125-3.112v-16.441a3.121 3.121 0 013.125-3.162h.235v9.076h2.83a7.014 7.014 0 014.462 1.495zm36.707-10.571h-.235v19.603a3.117 3.117 0 003.116 3.112h.244v-19.553a3.105 3.105 0 00-.913-2.209 3.12 3.12 0 00-2.212-.911v-.042zm-50.466 19.603v-12.96a6.823 6.823 0 00-5.26-6.451 6.848 6.848 0 00-2.963-.041 7.006 7.006 0 00-3.953 2.514 6.989 6.989 0 00-1.482 4.44v15.618h.227a3.119 3.119 0 003.116-3.12v-6.375h5.04a3.353 3.353 0 00-3.36-3.355H3.822v-2.886a3.603 3.603 0 012.89-3.598 3.466 3.466 0 014.048 3.422v15.643a.227.227 0 00.235.235 3.12 3.12 0 002.887-1.919c.157-.378.238-.783.238-1.193l.008.026zm60.041-16.441v19.552h-.243a3.124 3.124 0 01-3.125-3.112v-19.56h.244a3.119 3.119 0 013.125 3.12zM62.2 114.63v-6.425h-.167a3.226 3.226 0 00-3.217 3.212v3.498a3.465 3.465 0 01-3.588 3.127 3.471 3.471 0 01-2.342-1.036 3.46 3.46 0 01-.992-2.359v-3.087h4.536c.07-.74-.127-1.48-.554-2.089a3.218 3.218 0 00-2.066-1.266h-5.292v6.165a7.017 7.017 0 005.476 6.97 6.856 6.856 0 008.207-6.71zm24.175 5.267c.154.373.256.766.302 1.166l-3.166-.016a6.852 6.852 0 01-5.198-2.61 6.82 6.82 0 01-1.304-5.661 6.996 6.996 0 012.53-3.909 7.016 7.016 0 014.425-1.459h6.258v13.429a.255.255 0 01-.08.187.273.273 0 01-.087.056.274.274 0 01-.102.017 3.353 3.353 0 01-3.1-3.355v-6.912h-2.956a3.539 3.539 0 00-3.528 2.777 3.46 3.46 0 001.887 3.805c.46.222.962.341 1.473.347.462.07.906.227 1.31.461.35.216.65.501.882.839.046.068.08.129.116.193l.052.092c.114.174.21.36.286.553zm-47.383-2.214h-.05l-.27-.05a3.461 3.461 0 01-1.515-5.957 3.477 3.477 0 012.305-.88h3.058v10.276h.243a3.12 3.12 0 002.887-1.92c.157-.378.238-.783.238-1.192v-16.466a3.107 3.107 0 00-1.928-2.885 3.12 3.12 0 00-1.197-.235h-.235v9.076h-2.822a7.024 7.024 0 00-6.98 5.469 6.825 6.825 0 001.416 5.684 6.852 6.852 0 005.303 2.502h2.15s-.478-2.994-2.62-3.355l.017-.067zm147.709-9.94v-2.709l.016.017a6.835 6.835 0 012.008-4.812 6.853 6.853 0 014.821-2h3.041a3.566 3.566 0 01-3.066 3.356 3.466 3.466 0 00-3.199 2.139c-.174.42-.263.871-.261 1.325v2.416h5.266v.243a3.128 3.128 0 01-3.125 3.12h-2.141v7.097a3.108 3.108 0 01-1.93 2.877 3.12 3.12 0 01-1.195.235h-.235v-10.209h-1.873v-.243a3.118 3.118 0 011.873-2.852zm-32.633-9.411h-.244v19.603a3.125 3.125 0 003.125 3.111h.243v-6.609a3.465 3.465 0 013.469-3.464c.92 0 1.803.365 2.453 1.014a3.461 3.461 0 011.016 2.45v3.246a3.357 3.357 0 003.36 3.355v-6.61a6.838 6.838 0 00-2.007-4.831 6.859 6.859 0 00-4.838-2.005 6.732 6.732 0 00-3.47.982v-7.08a3.118 3.118 0 00-3.124-3.12l.017-.042zm-43.747 22.714v-15.878l.017-.025c0-.919-.365-1.8-1.016-2.45a3.473 3.473 0 00-4.906 0 3.465 3.465 0 00-1.016 2.45v3.062h1.621a3.354 3.354 0 013.36 3.355h-4.989v6.383a3.124 3.124 0 01-3.125 3.112h-.244v-15.618a7.004 7.004 0 015.477-6.962 6.855 6.855 0 017.46 3.643 6.83 6.83 0 01.721 2.857v12.96a3.108 3.108 0 01-1.929 2.877 3.1 3.1 0 01-1.195.234h-.236zm70.182-.991a3.351 3.351 0 01-.984-2.372l.109-6.87h-3.083a3.471 3.471 0 00-3.469 3.464 3.465 3.465 0 003.469 3.464 3.58 3.58 0 011.42.47c.332.222.618.507.84.839.046.068.08.129.115.193l.012.021.02.035.021.036c.113.175.209.36.285.554.16.371.262.764.303 1.166h-3.15a6.856 6.856 0 01-5.248-2.529 6.825 6.825 0 01-1.396-5.65 7.01 7.01 0 012.515-3.974 7.032 7.032 0 014.465-1.495h6.132v13.631a3.364 3.364 0 01-2.376-.983zm-59.774.991v-19.552a3.11 3.11 0 00-1.922-2.883 3.124 3.124 0 00-1.195-.237h-.243v19.56a3.125 3.125 0 003.125 3.112h.235zm93.623.076h-.243a3.129 3.129 0 01-2.207-.911 3.116 3.116 0 01-.918-2.201v-10.594h.244a3.13 3.13 0 013.124 3.12v10.586zm-65.988-17.816a12.304 12.304 0 00-15.271-3.496 12.29 12.29 0 00-5.736 6.024 12.264 12.264 0 004.264 15.054 12.31 12.31 0 0015.608-1.344 12.271 12.271 0 003.613-7.489 3.094 3.094 0 001.579-2.659v-.243h-12.415a3.134 3.134 0 00-3.125 3.12.244.244 0 00.244.243h10.466a9.03 9.03 0 01-6.631 7.07 9.06 9.06 0 01-9.227-2.987 9.03 9.03 0 01-1.215-9.611 9.043 9.043 0 018.195-5.183 8.961 8.961 0 015.367 1.761s2.873 1.871 4.284-.26zm54.725 4.286h5.031a3.358 3.358 0 01-3.36 3.305h-1.369a3.465 3.465 0 00-3.192 2.134 3.443 3.443 0 00-.26 1.322v3.422a3.355 3.355 0 01-3.36 3.355v-6.76a6.793 6.793 0 016.51-6.778zM53.686 76.865l.82.983 2.52 3.095a11.495 11.495 0 007.776 4.123 11.515 11.515 0 008.418-2.58l-3.066-3.723-6.098-7.39-7.325-8.858-.714-.839-1.335-1.619a11.505 11.505 0 00-7.787-4.123 11.522 11.522 0 00-8.425 2.588l6.798 8.227a27.75 27.75 0 01-27.357-10.562 27.652 27.652 0 015-38.364 27.747 27.747 0 0138.524 4.099 27.655 27.655 0 01-3.208 38.555l7.56 9.176a39.231 39.231 0 007.895-9.461 39.08 39.08 0 0028.77 18.824 39.11 39.11 0 0018.537-2.176l.832 1.008 2.52 3.095a11.507 11.507 0 0016.195 1.544l-3.057-3.724-6.09-7.348-7.274-8.9-.714-.839-1.336-1.619a11.511 11.511 0 00-12.251-3.663 11.518 11.518 0 00-3.952 2.128l6.798 8.228a27.756 27.756 0 01-14.644-1.128 27.721 27.721 0 01-11.052-7.34 27.642 27.642 0 01-.621-36.718 27.719 27.719 0 0110.797-7.707 27.755 27.755 0 0127.795 4.282 27.678 27.678 0 018.899 13.118 27.642 27.642 0 01.237 15.843 27.673 27.673 0 01-8.504 13.377l7.501 9.143a38.993 38.993 0 007.811-9.39 39.298 39.298 0 0028.788 18.808 39.339 39.339 0 0018.703-2.173l.826 1 2.52 3.095a11.493 11.493 0 007.777 4.123 11.51 11.51 0 008.417-2.58l-3.082-3.766-6.099-7.347-7.324-8.858-.723-.839-1.335-1.61a11.502 11.502 0 00-16.111-1.543l6.774 8.198a27.746 27.746 0 01-27.418-10.55 27.648 27.648 0 01-5.326-20.2 27.668 27.668 0 0110.326-18.165 27.746 27.746 0 0138.524 4.099 27.653 27.653 0 01-3.208 38.555l7.56 9.176a39.215 39.215 0 0013.316-26.578 39.193 39.193 0 00-9.166-28.275 39.323 39.323 0 00-54.851-5.072 39.23 39.23 0 00-8.998 10.466A39.084 39.084 0 00110.815 1.45a39.105 39.105 0 00-28.289 8.681 39.019 39.019 0 00-8.734 10.1A39.303 39.303 0 0043.55 1.056a39.323 39.323 0 00-28.465 8.673A39.191 39.191 0 009.08 64.41a39.299 39.299 0 0025.906 14.628 39.335 39.335 0 0018.7-2.173z"/></g><defs><clipPath id="clip0_436_159966"><path fill="#fff" transform="translate(.353)" d="M0 0h214v160H0z"/></clipPath></defs></svg>