<svg width="215" height="160" fill="none" xmlns="http://www.w3.org/2000/svg"><g clip-path="url(#clip0_447_617)" fill="#394849"><path d="M70.318 79.106l.026.026-.008-.026h-.018zM57.761 137.68a1.586 1.586 0 01-1.587-1.586v-.092a1.589 1.589 0 01.954-1.576 1.59 1.59 0 011.275 0 1.593 1.593 0 01.954 1.576v.092a1.592 1.592 0 01-1.596 1.586zm27.845 0a1.598 1.598 0 001.596-1.586v-.092a1.589 1.589 0 00-.954-1.576 1.59 1.59 0 00-1.275 0 1.593 1.593 0 00-.955 1.576v.092a1.587 1.587 0 001.588 1.586z"/><path fill-rule="evenodd" clip-rule="evenodd" d="M111.847 152.66a3.177 3.177 0 01-3.184-3.179v-15.165c.844 0 1.654.335 2.251.931.597.596.933 1.405.933 2.248v15.165zm-104.88-3.355v-.033a3.271 3.271 0 110-6.543h2.548c.074.006 3.431.247 3.207-3.187H9.74v.002-.002H6.968a6.45 6.45 0 00-2.546.423 6.456 6.456 0 000 12.063 6.49 6.49 0 002.546.423h23.091l.016.033a3.177 3.177 0 003.184-3.179h-6.88v.034a3.271 3.271 0 110-6.543h2.904c-.018.478.006 3.344 3.187 3.129v-6.35h-6.09a6.485 6.485 0 00-4.566 1.897 6.464 6.464 0 00-1.893 4.562 6.315 6.315 0 00.898 3.271H6.968zm55.952-9.763h-5.746a6.648 6.648 0 00-6.602 5.175 6.458 6.458 0 00.774 4.555h-9.838v-5.922a2.892 2.892 0 00-2.722 1.703 2.89 2.89 0 00-.251 1.098v5.872c.042.814-.151 3.196-1.504 4.378a3.266 3.266 0 01-1.898.772v-.033a2.673 2.673 0 00-2.498 1.762c-.124.34-.177.703-.157 1.064h2.386a6.422 6.422 0 004.2-1.56c2.094-1.812 2.404-4.759 2.443-5.955h21.286v-.008h.127a.1.1 0 00.1-.101v-12.699a.106.106 0 00-.031-.069.107.107 0 00-.07-.032zm-3.091 9.73v-6.45a.094.094 0 00-.027-.066.094.094 0 00-.066-.027h-2.57a3.44 3.44 0 00-3.494 2.793 3.272 3.272 0 003.15 3.75h3.007zm41.721.033v-11.718a3.186 3.186 0 013.191-3.179v18.068H66.732v-18.135a3.179 3.179 0 013.183 3.179v11.743h9.735a6.374 6.374 0 01-.84-3.85 6.708 6.708 0 012.242-4.211 6.726 6.726 0 014.478-1.66h5.788v6.383c-3.478.235-3.184-3.196-3.184-3.196h-2.747a3.4 3.4 0 00-3.41 2.718 3.276 3.276 0 001.86 3.559 3.29 3.29 0 001.4.299h16.312zm60.067 2.424a3.185 3.185 0 002.251.931v-15.165c0-.843-.336-1.652-.933-2.248a3.187 3.187 0 00-2.251-.931v15.165c0 .843.336 1.652.933 2.248zM10.74 159.882a3.174 3.174 0 011.977-2.942 3.205 3.205 0 011.223-.237h7.56a3.174 3.174 0 01-1.971 2.94c-.387.159-.802.24-1.221.239H10.74zm145.995-7.431h-26.879l.058.025c-5.014 0-6.854-3.179-6.854-3.179a6.438 6.438 0 01-.84-3.85 6.71 6.71 0 012.242-4.211 6.728 6.728 0 014.478-1.661h5.779v6.384c-3.469.235-3.183-3.196-3.183-3.196h-2.764a3.361 3.361 0 00-3.41 2.718 3.27 3.27 0 00.732 2.664 3.288 3.288 0 002.51 1.16h15.422v-11.81c0-.843.336-1.652.933-2.248a3.187 3.187 0 012.251-.931v14.989h6.341v-11.717a3.182 3.182 0 013.184-3.18v18.043zm21.783-.008h-10.779s-.412-2.903 3.973-3.18h5.367a3.29 3.29 0 002.511-1.16c.309-.364.534-.791.66-1.252a3.27 3.27 0 00.072-1.412 3.356 3.356 0 00-3.411-2.718h-2.536v.008h-2.663c-4.385-.277-3.973-3.187-3.973-3.187h9.055a6.713 6.713 0 016.762 5.871 6.443 6.443 0 01-.84 3.85h6.929v-5.897a3.184 3.184 0 013.183-3.179v9.076h6.721a6.437 6.437 0 01-.816-3.808 6.718 6.718 0 016.72-5.871h5.779v6.366c-3.469.235-3.183-3.196-3.183-3.196h-2.739a3.357 3.357 0 00-3.41 2.718 3.282 3.282 0 003.242 3.825h5.351c4.385.277 3.973 3.179 3.973 3.179h-35.951l.003-.033zm9.14 5.387a1.6 1.6 0 01-1.129.467 1.594 1.594 0 01-1.587-1.593v-.093a1.584 1.584 0 01.423-1.201 1.588 1.588 0 011.168-.508 1.59 1.59 0 011.169.508 1.607 1.607 0 01.423 1.201v.093c0 .422-.168.828-.467 1.126z"/><path d="M211.132 103.239v.235a1.558 1.558 0 001.562 1.56h.244a1.563 1.563 0 001.562-1.56v-.235a1.557 1.557 0 00-1.562-1.56h-.244a1.563 1.563 0 00-1.562 1.56z"/><path fill-rule="evenodd" clip-rule="evenodd" d="M28.035 108.903a7 7 0 012.511 3.974l.008-.051a6.83 6.83 0 01-3.786 7.532 6.855 6.855 0 01-2.933.655h-2.15s.487-2.969 2.62-3.355h.05l.27-.05a3.461 3.461 0 001.515-5.957 3.477 3.477 0 00-2.305-.88h-3.083v10.276h-.244a3.12 3.12 0 01-3.125-3.112v-16.441a3.121 3.121 0 013.125-3.162h.236v9.076h2.83a7.014 7.014 0 014.461 1.495zm36.706-10.571h-.235v19.603a3.117 3.117 0 003.116 3.112h.244v-19.553a3.105 3.105 0 00-.912-2.209 3.12 3.12 0 00-2.212-.911v-.042zm-50.465 19.603v-12.96a6.823 6.823 0 00-5.261-6.451 6.848 6.848 0 00-2.962-.041 7.006 7.006 0 00-3.953 2.514 6.989 6.989 0 00-1.482 4.44v15.618h.227a3.119 3.119 0 003.116-3.12v-6.375h5.04a3.353 3.353 0 00-3.36-3.355H3.97v-2.886a3.603 3.603 0 012.89-3.598 3.466 3.466 0 014.048 3.422v15.643a.227.227 0 00.235.235 3.12 3.12 0 002.887-1.919c.157-.378.238-.783.238-1.193l.008.026zm60.041-16.441v19.552h-.243a3.124 3.124 0 01-3.125-3.112v-19.56h.243a3.119 3.119 0 013.125 3.12zm-11.97 13.136v-6.425h-.167a3.226 3.226 0 00-3.218 3.212v3.498a3.465 3.465 0 01-3.587 3.127 3.471 3.471 0 01-2.343-1.036 3.46 3.46 0 01-.99-2.359v-3.087h4.535c.07-.74-.127-1.48-.554-2.089a3.218 3.218 0 00-2.067-1.266h-5.292v6.165a7.017 7.017 0 005.477 6.97 6.857 6.857 0 008.207-6.71zm24.175 5.267c.154.373.256.766.302 1.166l-3.167-.016a6.852 6.852 0 01-5.197-2.61 6.822 6.822 0 01-1.304-5.661 6.996 6.996 0 012.53-3.909 7.016 7.016 0 014.425-1.459h6.258v13.429a.253.253 0 01-.021.101.25.25 0 01-.059.086.272.272 0 01-.087.056.274.274 0 01-.102.017 3.352 3.352 0 01-3.1-3.355v-6.912h-2.956a3.538 3.538 0 00-3.528 2.777 3.457 3.457 0 001.887 3.805c.46.222.962.341 1.473.347.462.07.906.227 1.31.461.349.216.65.501.882.839.046.068.08.129.115.193l.053.092c.114.174.21.36.286.553zm-47.383-2.214h-.05l-.27-.05a3.461 3.461 0 01-1.515-5.957 3.477 3.477 0 012.305-.88h3.057v10.276h.244a3.12 3.12 0 002.887-1.92c.157-.378.238-.783.238-1.192v-16.466a3.107 3.107 0 00-1.928-2.885 3.12 3.12 0 00-1.197-.235h-.235v9.076h-2.822a7.024 7.024 0 00-6.98 5.469 6.825 6.825 0 001.416 5.684 6.852 6.852 0 005.303 2.502h2.15s-.478-2.994-2.62-3.355l.017-.067zm147.709-9.94v-2.709l.017.017a6.835 6.835 0 012.008-4.812 6.853 6.853 0 014.821-2h3.041a3.57 3.57 0 01-3.066 3.355 3.466 3.466 0 00-3.2 2.14c-.173.42-.262.871-.261 1.325v2.416h5.267v.243a3.132 3.132 0 01-3.125 3.12h-2.142v7.097a3.108 3.108 0 01-1.929 2.877 3.12 3.12 0 01-1.195.235h-.236v-10.209h-1.873v-.243a3.12 3.12 0 011.873-2.852zm-32.633-9.411h-.243v19.603a3.124 3.124 0 003.124 3.111h.244v-6.609c0-.919.365-1.8 1.016-2.45a3.475 3.475 0 014.906 0 3.461 3.461 0 011.016 2.45v3.246a3.36 3.36 0 003.36 3.355v-6.61a6.838 6.838 0 00-2.007-4.831 6.86 6.86 0 00-4.839-2.005 6.729 6.729 0 00-3.469.982v-7.08a3.118 3.118 0 00-3.125-3.12l.017-.042zm-43.746 22.714v-15.878l.017-.025a3.465 3.465 0 00-3.469-3.464c-.92 0-1.803.365-2.453 1.014a3.461 3.461 0 00-1.016 2.45v3.062h1.621a3.354 3.354 0 013.36 3.355h-4.99v6.383a3.116 3.116 0 01-.918 2.201 3.128 3.128 0 01-2.206.911h-.244v-15.618a6.999 6.999 0 011.497-4.455 7.017 7.017 0 013.98-2.507 6.855 6.855 0 017.46 3.643c.445.889.691 1.864.721 2.857v12.96a3.108 3.108 0 01-1.93 2.877 3.1 3.1 0 01-1.195.234h-.235zm70.182-.991a3.348 3.348 0 01-.985-2.372l.11-6.87h-3.083a3.47 3.47 0 00-3.469 3.464c0 .919.365 1.8 1.016 2.45a3.473 3.473 0 002.453 1.014 3.57 3.57 0 011.419.47c.333.222.618.507.84.839.046.068.08.129.116.193l.012.021.02.035.02.036c.114.175.21.36.286.554.159.371.261.764.302 1.166h-3.149a6.852 6.852 0 01-5.248-2.529 6.84 6.84 0 01-1.331-2.669 6.847 6.847 0 01-.066-2.981 7.012 7.012 0 012.516-3.974 7.03 7.03 0 014.465-1.495h6.131v13.631a3.362 3.362 0 01-2.375-.983zm-59.775.991v-19.552a3.09 3.09 0 00-.234-1.193 3.13 3.13 0 00-2.882-1.927h-.243v19.56a3.122 3.122 0 003.124 3.112h.235zm93.624.076h-.244c-.827 0-1.62-.328-2.206-.911a3.116 3.116 0 01-.918-2.201v-10.594h.243a3.136 3.136 0 012.207.916c.586.585.916 1.378.918 2.204v10.586zm-65.988-17.816a12.304 12.304 0 00-15.271-3.496 12.286 12.286 0 00-5.736 6.024 12.264 12.264 0 004.263 15.054 12.31 12.31 0 0015.609-1.344 12.27 12.27 0 003.612-7.489 3.091 3.091 0 001.58-2.659v-.243h-12.415a3.132 3.132 0 00-3.125 3.12c0 .064.026.126.071.172a.248.248 0 00.173.071h10.466a9.03 9.03 0 01-6.631 7.07 9.046 9.046 0 01-11.234-7.616 9.027 9.027 0 014.134-8.763 9.058 9.058 0 014.852-1.402 8.962 8.962 0 015.368 1.761s2.872 1.871 4.284-.26zm54.724 4.286h5.032a3.361 3.361 0 01-3.36 3.305h-1.369a3.444 3.444 0 00-3.192 2.134 3.424 3.424 0 00-.26 1.322v3.422a3.36 3.36 0 01-3.36 3.355v-6.76a6.789 6.789 0 011.893-4.693 6.813 6.813 0 014.616-2.085zM53.834 76.865l.82.983 2.519 3.095a11.497 11.497 0 007.777 4.123 11.515 11.515 0 008.418-2.58l-3.066-3.723-6.098-7.39-7.325-8.858-.714-.839-1.335-1.619a11.505 11.505 0 00-7.788-4.123 11.523 11.523 0 00-8.424 2.588l6.798 8.227a27.75 27.75 0 01-27.357-10.562 27.652 27.652 0 015-38.364 27.747 27.747 0 0138.523 4.099 27.654 27.654 0 01-3.208 38.555l7.56 9.176a39.231 39.231 0 007.896-9.461 39.08 39.08 0 0028.77 18.824 39.115 39.115 0 0018.537-2.176l.832 1.008 2.52 3.095a11.506 11.506 0 0012.243 3.67 11.511 11.511 0 003.952-2.126l-3.058-3.724-6.09-7.348-7.274-8.9-.714-.839-1.335-1.619a11.503 11.503 0 00-7.784-4.119 11.523 11.523 0 00-8.42 2.584l6.798 8.228a27.74 27.74 0 01-14.643-1.128 27.721 27.721 0 01-11.052-7.34 27.643 27.643 0 01-.622-36.718 27.718 27.718 0 0110.798-7.707 27.758 27.758 0 0127.794 4.282 27.65 27.65 0 01.633 42.338l7.501 9.143a39.012 39.012 0 007.81-9.39 39.298 39.298 0 0028.789 18.808 39.333 39.333 0 0018.702-2.173l.826 1 2.52 3.095a11.497 11.497 0 007.777 4.123 11.515 11.515 0 008.418-2.58l-3.083-3.766-6.098-7.347-7.325-8.858-.722-.839-1.336-1.61a11.5 11.5 0 00-16.11-1.543l6.774 8.198a27.752 27.752 0 01-9.473.18 27.726 27.726 0 01-17.945-10.73 27.653 27.653 0 014.999-38.365 27.748 27.748 0 0138.525 4.099 27.658 27.658 0 016.261 19.93 27.669 27.669 0 01-9.469 18.625l7.559 9.176a39.192 39.192 0 004.151-54.853 39.323 39.323 0 00-54.852-5.072 39.249 39.249 0 00-8.998 10.466A39.084 39.084 0 00110.962 1.45a39.105 39.105 0 00-28.288 8.681 39.017 39.017 0 00-8.734 10.1A39.303 39.303 0 0043.698 1.056a39.324 39.324 0 00-28.465 8.673A39.191 39.191 0 009.228 64.41a39.299 39.299 0 0025.906 14.628 39.335 39.335 0 0018.7-2.173z"/></g><defs><clipPath id="clip0_447_617"><path fill="#fff" transform="translate(.5)" d="M0 0h214v160H0z"/></clipPath></defs></svg>