<?xml version="1.0" standalone="no"?>
<!DOCTYPE svg PUBLIC "-//W3C//DTD SVG 20010904//EN"
 "http://www.w3.org/TR/2001/REC-SVG-20010904/DTD/svg10.dtd">
<svg version="1.0" xmlns="http://www.w3.org/2000/svg"
 width="700.000000pt" height="700.000000pt" viewBox="0 0 700.000000 700.000000"
 preserveAspectRatio="xMidYMid meet">
<metadata>
Created by potrace 1.14, written by Peter Selinger 2001-2017
</metadata>
<g transform="translate(0.000000,700.000000) scale(0.100000,-0.100000)"
fill="#000000" stroke="none">
<path d="M3230 6989 c-650 -57 -1251 -297 -1770 -707 -125 -99 -405 -380 -509
-512 -638 -806 -862 -1867 -601 -2855 321 -1218 1312 -2140 2550 -2374 376
-71 824 -71 1200 0 131 25 337 79 454 119 50 16 93 27 97 23 3 -5 66 -82 139
-173 73 -91 149 -182 169 -204 111 -120 305 -234 471 -277 67 -18 114 -23 225
-23 158 -1 238 13 370 67 81 33 248 135 243 149 -3 8 -20 29 -478 583 -168
204 -455 552 -637 775 -507 621 -531 646 -687 735 -281 159 -620 166 -909 19
-86 -44 -156 -91 -163 -109 -3 -8 113 -157 268 -345 150 -182 274 -335 276
-339 8 -25 -335 -56 -518 -47 -359 17 -662 98 -975 259 -645 333 -1088 942
-1216 1672 -26 144 -36 472 -20 615 39 341 162 703 331 975 285 458 733 813
1237 979 252 83 461 116 736 116 373 -1 681 -72 1012 -234 691 -339 1152 -972
1272 -1746 24 -160 24 -500 -1 -660 -78 -500 -298 -939 -648 -1294 -65 -66
-118 -121 -118 -123 0 -7 612 -748 620 -751 13 -5 259 242 347 348 363 436
605 954 707 1510 39 214 50 349 49 595 0 311 -26 511 -103 812 -248 964 -946
1775 -1866 2168 -485 207 -1043 299 -1554 254z"/>
</g>
</svg>
